<?xml version="1.0" encoding="utf-8"?>
<!-- Generator: Adobe Illustrator 16.0.4, SVG Export Plug-In . SVG Version: 6.00 Build 0)  -->
<!DOCTYPE svg PUBLIC "-//W3C//DTD SVG 1.1//EN" "http://www.w3.org/Graphics/SVG/1.1/DTD/svg11.dtd">
<svg version="1.1" id="Layer_1" xmlns="http://www.w3.org/2000/svg" xmlns:xlink="http://www.w3.org/1999/xlink" x="0px" y="0px"
	 width="1000px" height="1000px" viewBox="0 0 1000 1000" enable-background="new 0 0 1000 1000" xml:space="preserve">
<g>
	
		<polygon fill="#48ACFF" stroke="#00141E" stroke-width="2" stroke-linecap="round" stroke-linejoin="round" stroke-miterlimit="10" points="
		288.225,366.509 487.542,249.642 288.225,132.779 	"/>
	
		<polygon fill="#48ACFF" stroke="#00141E" stroke-width="2" stroke-linecap="round" stroke-linejoin="round" stroke-miterlimit="10" points="
		275.438,614.416 275.438,388.826 83.066,501.619 	"/>
	
		<polygon fill="#48ACFF" stroke="#00141E" stroke-width="2" stroke-linecap="round" stroke-linejoin="round" stroke-miterlimit="10" points="
		487.543,501.621 288.225,384.755 288.225,618.486 	"/>
	
		<polygon fill="#48ACFF" stroke="#00141E" stroke-width="2" stroke-linecap="round" stroke-linejoin="round" stroke-miterlimit="10" points="
		288.225,636.732 288.225,869.014 289.455,869.744 487.543,753.598 	"/>
	
		<polygon fill="#48ACFF" stroke="#00141E" stroke-width="2" stroke-linecap="round" stroke-linejoin="round" stroke-miterlimit="10" points="
		492.808,765.334 302.01,877.203 492.808,990.553 	"/>
	
		<polygon fill="#48ACFF" stroke="#00141E" stroke-width="2" stroke-linecap="round" stroke-linejoin="round" stroke-miterlimit="10" points="
		275.438,640.805 88.548,750.383 275.438,861.416 	"/>
	
		<polygon fill="#48ACFF" stroke="#00141E" stroke-width="2" stroke-linecap="round" stroke-linejoin="round" stroke-miterlimit="10" points="
		272.665,375.63 77.248,261.055 77.248,490.209 	"/>
	
		<polygon fill="#48ACFF" stroke="#00141E" stroke-width="2" stroke-linecap="round" stroke-linejoin="round" stroke-miterlimit="10" points="
		492.808,237.907 492.808,9.447 299.267,124.428 	"/>
	
		<polygon fill="#48ACFF" stroke="#00141E" stroke-width="2" stroke-linecap="round" stroke-linejoin="round" stroke-miterlimit="10" points="
		275.438,362.435 275.438,138.585 85.803,251.247 	"/>
	
		<polygon fill="#48ACFF" stroke="#00141E" stroke-width="2" stroke-linecap="round" stroke-linejoin="round" stroke-miterlimit="10" points="
		711.776,366.509 512.46,249.642 711.776,132.779 	"/>
	
		<polygon fill="#48ACFF" stroke="#00141E" stroke-width="2" stroke-linecap="round" stroke-linejoin="round" stroke-miterlimit="10" points="
		724.562,614.416 724.562,388.826 916.936,501.619 	"/>
	
		<polygon fill="#48ACFF" stroke="#00141E" stroke-width="2" stroke-linecap="round" stroke-linejoin="round" stroke-miterlimit="10" points="
		512.457,501.621 711.776,384.755 711.776,618.486 	"/>
	
		<polygon fill="#48ACFF" stroke="#00141E" stroke-width="2" stroke-linecap="round" stroke-linejoin="round" stroke-miterlimit="10" points="
		711.776,636.732 711.776,869.014 710.547,869.744 512.457,753.598 	"/>
	
		<polygon fill="#48ACFF" stroke="#00141E" stroke-width="2" stroke-linecap="round" stroke-linejoin="round" stroke-miterlimit="10" points="
		507.194,765.334 697.99,877.203 507.194,990.553 	"/>
	
		<polygon fill="#48ACFF" stroke="#00141E" stroke-width="2" stroke-linecap="round" stroke-linejoin="round" stroke-miterlimit="10" points="
		724.562,640.805 911.455,750.383 724.562,861.416 	"/>
	
		<polygon fill="#48ACFF" stroke="#00141E" stroke-width="2" stroke-linecap="round" stroke-linejoin="round" stroke-miterlimit="10" points="
		922.752,513.033 922.752,742.189 727.333,627.611 	"/>
	
		<polygon fill="#48ACFF" stroke="#00141E" stroke-width="2" stroke-linecap="round" stroke-linejoin="round" stroke-miterlimit="10" points="
		507.194,237.907 507.194,9.447 700.733,124.428 	"/>
	
		<polygon fill="#48ACFF" stroke="#00141E" stroke-width="2" stroke-linecap="round" stroke-linejoin="round" stroke-miterlimit="10" points="
		724.562,362.435 724.562,138.585 914.198,251.247 	"/>
</g>
</svg>
