<?xml version="1.0" encoding="utf-8"?>
<!-- Generator: Adobe Illustrator 16.0.4, SVG Export Plug-In . SVG Version: 6.00 Build 0)  -->
<!DOCTYPE svg PUBLIC "-//W3C//DTD SVG 1.1//EN" "http://www.w3.org/Graphics/SVG/1.1/DTD/svg11.dtd">
<svg version="1.1" xmlns="http://www.w3.org/2000/svg" xmlns:xlink="http://www.w3.org/1999/xlink" x="0px" y="0px" width="512px"
	 height="512px" viewBox="0 0 512 512" enable-background="new 0 0 512 512" xml:space="preserve">
<g id="Badge_Fill">
	<path fill="#171C1F" stroke="#000000" stroke-width="3" stroke-miterlimit="10" d="M12.5,474.5c0,14.912,12.088,27,27,27h433
		c14.912,0,27-12.088,27-27v-434c0-14.912-12.088-27-27-27h-433c-14.912,0-27,12.088-27,27V474.5z"/>
</g>
<g id="NGA_Research">
	<g>
		<linearGradient id="SVGID_1_" gradientUnits="userSpaceOnUse" x1="214.4214" y1="119.8218" x2="214.4214" y2="206.4995">
			<stop  offset="0" style="stop-color:#3681BF"/>
			<stop  offset="1" style="stop-color:#48ACFF"/>
		</linearGradient>
		<polygon fill="url(#SVGID_1_)" stroke="#000000" stroke-width="2" stroke-miterlimit="10" points="177.458,206.5 251.384,163.155 
			177.458,119.822 		"/>
		<linearGradient id="SVGID_2_" gradientUnits="userSpaceOnUse" x1="137.0498" y1="214.7744" x2="137.0498" y2="298.4253">
			<stop  offset="0" style="stop-color:#3681BF"/>
			<stop  offset="1" style="stop-color:#48ACFF"/>
		</linearGradient>
		<polygon fill="url(#SVGID_2_)" stroke="#000000" stroke-width="2" stroke-miterlimit="10" points="172.722,298.425 
			172.722,214.774 101.378,256.605 		"/>
		<linearGradient id="SVGID_3_" gradientUnits="userSpaceOnUse" x1="214.4214" y1="213.2573" x2="214.4214" y2="299.939">
			<stop  offset="0" style="stop-color:#3681BF"/>
			<stop  offset="1" style="stop-color:#48ACFF"/>
		</linearGradient>
		<polygon fill="url(#SVGID_3_)" stroke="#000000" stroke-width="2" stroke-miterlimit="10" points="251.384,256.605 
			177.458,213.257 177.458,299.938 		"/>
		<linearGradient id="SVGID_4_" gradientUnits="userSpaceOnUse" x1="214.4214" y1="306.7148" x2="214.4214" y2="393.1172">
			<stop  offset="0" style="stop-color:#3681BF"/>
			<stop  offset="1" style="stop-color:#48ACFF"/>
		</linearGradient>
		<polygon fill="url(#SVGID_4_)" stroke="#000000" stroke-width="2" stroke-miterlimit="10" points="177.458,306.715 
			177.458,392.855 177.917,393.117 251.384,350.045 		"/>
		<linearGradient id="SVGID_5_" gradientUnits="userSpaceOnUse" x1="217.959" y1="354.4023" x2="217.959" y2="437.9199">
			<stop  offset="0" style="stop-color:#3681BF"/>
			<stop  offset="1" style="stop-color:#48ACFF"/>
		</linearGradient>
		<polygon fill="url(#SVGID_5_)" stroke="#000000" stroke-width="2" stroke-miterlimit="10" points="253.332,354.402 
			182.586,395.883 253.332,437.92 		"/>
		<linearGradient id="SVGID_6_" gradientUnits="userSpaceOnUse" x1="138.0693" y1="308.2168" x2="138.0693" y2="390.0234">
			<stop  offset="0" style="stop-color:#3681BF"/>
			<stop  offset="1" style="stop-color:#48ACFF"/>
		</linearGradient>
		<polygon fill="url(#SVGID_6_)" stroke="#000000" stroke-width="2" stroke-miterlimit="10" points="172.722,308.217 
			103.417,348.859 172.722,390.023 		"/>
		<linearGradient id="SVGID_7_" gradientUnits="userSpaceOnUse" x1="135.4565" y1="167.3853" x2="135.4565" y2="252.375">
			<stop  offset="0" style="stop-color:#3681BF"/>
			<stop  offset="1" style="stop-color:#48ACFF"/>
		</linearGradient>
		<polygon fill="url(#SVGID_7_)" stroke="#000000" stroke-width="2" stroke-miterlimit="10" points="171.69,209.878 99.223,167.385 
			99.223,252.375 		"/>
		<linearGradient id="SVGID_8_" gradientUnits="userSpaceOnUse" x1="217.4399" y1="74.0806" x2="217.4399" y2="158.8022">
			<stop  offset="0" style="stop-color:#3681BF"/>
			<stop  offset="1" style="stop-color:#48ACFF"/>
		</linearGradient>
		<polygon fill="url(#SVGID_8_)" stroke="#000000" stroke-width="2" stroke-miterlimit="10" points="253.332,158.802 
			253.332,74.081 181.549,116.727 		"/>
		<linearGradient id="SVGID_9_" gradientUnits="userSpaceOnUse" x1="137.5596" y1="121.9736" x2="137.5596" y2="204.9858">
			<stop  offset="0" style="stop-color:#3681BF"/>
			<stop  offset="1" style="stop-color:#48ACFF"/>
		</linearGradient>
		<polygon fill="url(#SVGID_9_)" stroke="#000000" stroke-width="2" stroke-miterlimit="10" points="172.722,204.986 
			172.722,121.974 102.397,163.753 		"/>
		
			<linearGradient id="SVGID_10_" gradientUnits="userSpaceOnUse" x1="-53.5786" y1="119.8223" x2="-53.5786" y2="206.5" gradientTransform="matrix(-1 0 0 1 244 0)">
			<stop  offset="0" style="stop-color:#3681BF"/>
			<stop  offset="1" style="stop-color:#48ACFF"/>
		</linearGradient>
		<polygon fill="url(#SVGID_10_)" stroke="#000000" stroke-width="2" stroke-miterlimit="10" points="334.541,206.5 
			260.615,163.155 334.541,119.822 		"/>
		
			<linearGradient id="SVGID_11_" gradientUnits="userSpaceOnUse" x1="-130.9497" y1="214.7749" x2="-130.9497" y2="298.4243" gradientTransform="matrix(-1 0 0 1 244 0)">
			<stop  offset="0" style="stop-color:#3681BF"/>
			<stop  offset="1" style="stop-color:#48ACFF"/>
		</linearGradient>
		<polygon fill="url(#SVGID_11_)" stroke="#000000" stroke-width="2" stroke-miterlimit="10" points="339.277,298.425 
			339.277,214.774 410.621,256.605 		"/>
		
			<linearGradient id="SVGID_12_" gradientUnits="userSpaceOnUse" x1="-53.5786" y1="213.2578" x2="-53.5786" y2="299.938" gradientTransform="matrix(-1 0 0 1 244 0)">
			<stop  offset="0" style="stop-color:#3681BF"/>
			<stop  offset="1" style="stop-color:#48ACFF"/>
		</linearGradient>
		<polygon fill="url(#SVGID_12_)" stroke="#000000" stroke-width="2" stroke-miterlimit="10" points="260.615,256.605 
			334.541,213.257 334.541,299.938 		"/>
		
			<linearGradient id="SVGID_13_" gradientUnits="userSpaceOnUse" x1="-53.5786" y1="306.7139" x2="-53.5786" y2="393.1162" gradientTransform="matrix(-1 0 0 1 244 0)">
			<stop  offset="0" style="stop-color:#3681BF"/>
			<stop  offset="1" style="stop-color:#48ACFF"/>
		</linearGradient>
		<polygon fill="url(#SVGID_13_)" stroke="#000000" stroke-width="2" stroke-miterlimit="10" points="334.541,306.715 
			334.541,392.855 334.082,393.117 260.615,350.045 		"/>
		
			<linearGradient id="SVGID_14_" gradientUnits="userSpaceOnUse" x1="-50.0503" y1="354.4014" x2="-50.0503" y2="437.9189" gradientTransform="matrix(-1 0 0 1 244 0)">
			<stop  offset="0" style="stop-color:#3681BF"/>
			<stop  offset="1" style="stop-color:#48ACFF"/>
		</linearGradient>
		<polygon fill="url(#SVGID_14_)" stroke="#000000" stroke-width="2" stroke-miterlimit="10" points="258.668,354.402 
			329.432,395.883 258.668,437.92 		"/>
		
			<linearGradient id="SVGID_15_" gradientUnits="userSpaceOnUse" x1="-129.9302" y1="308.2158" x2="-129.9302" y2="390.0225" gradientTransform="matrix(-1 0 0 1 244 0)">
			<stop  offset="0" style="stop-color:#3681BF"/>
			<stop  offset="1" style="stop-color:#48ACFF"/>
		</linearGradient>
		<polygon fill="url(#SVGID_15_)" stroke="#000000" stroke-width="2" stroke-miterlimit="10" points="339.277,308.217 
			408.582,348.859 339.277,390.023 		"/>
		<linearGradient id="SVGID_16_" gradientUnits="userSpaceOnUse" x1="340.3105" y1="303.3271" x2="412.7773" y2="303.3271">
			<stop  offset="0" style="stop-color:#3681BF"/>
			<stop  offset="1" style="stop-color:#48ACFF"/>
		</linearGradient>
		<polygon fill="url(#SVGID_16_)" stroke="#000000" stroke-width="2" stroke-miterlimit="10" points="412.777,260.84 
			412.777,345.814 340.311,303.32 		"/>
		
			<linearGradient id="SVGID_17_" gradientUnits="userSpaceOnUse" x1="-50.5601" y1="74.0811" x2="-50.5601" y2="158.8027" gradientTransform="matrix(-1 0 0 1 244 0)">
			<stop  offset="0" style="stop-color:#3681BF"/>
			<stop  offset="1" style="stop-color:#48ACFF"/>
		</linearGradient>
		<polygon fill="url(#SVGID_17_)" stroke="#000000" stroke-width="2" stroke-miterlimit="10" points="258.668,158.802 
			258.668,74.081 330.451,116.727 		"/>
		
			<linearGradient id="SVGID_18_" gradientUnits="userSpaceOnUse" x1="-130.4468" y1="121.9741" x2="-130.4468" y2="204.9863" gradientTransform="matrix(-1 0 0 1 244 0)">
			<stop  offset="0" style="stop-color:#3681BF"/>
			<stop  offset="1" style="stop-color:#48ACFF"/>
		</linearGradient>
		<polygon fill="url(#SVGID_18_)" stroke="#000000" stroke-width="2" stroke-miterlimit="10" points="339.277,204.986 
			339.277,121.974 409.615,163.753 		"/>
	</g>
	<g>
		<path fill="#FFFFFF" d="M72.754,50.977V63h-7.031V28.875h13.312c2.562,0,4.816,0.469,6.762,1.406s3.441,2.27,4.488,3.996
			s1.57,3.691,1.57,5.895c0,3.344-1.145,5.98-3.434,7.91s-5.457,2.895-9.504,2.895H72.754z M72.754,45.281h6.281
			c1.859,0,3.277-0.438,4.254-1.312s1.465-2.125,1.465-3.75c0-1.672-0.492-3.023-1.477-4.055s-2.344-1.562-4.078-1.594h-6.445
			V45.281z"/>
		<path fill="#FFFFFF" d="M94.879,50.086c0-2.516,0.484-4.758,1.453-6.727s2.363-3.492,4.184-4.57s3.934-1.617,6.34-1.617
			c3.422,0,6.215,1.047,8.379,3.141s3.371,4.938,3.621,8.531l0.047,1.734c0,3.891-1.086,7.012-3.258,9.363s-5.086,3.527-8.742,3.527
			s-6.574-1.172-8.754-3.516s-3.27-5.531-3.27-9.562V50.086z M101.652,50.567c0,2.41,0.453,4.252,1.359,5.528
			s2.203,1.913,3.891,1.913c1.641,0,2.922-0.63,3.844-1.89s1.383-3.274,1.383-6.044c0-2.363-0.461-4.194-1.383-5.493
			s-2.219-1.948-3.891-1.948c-1.656,0-2.938,0.646-3.844,1.937S101.652,47.86,101.652,50.567z"/>
		<path fill="#FFFFFF" d="M145.129,53.789l3.328-16.148h6.539L148.527,63h-5.672l-4.805-15.961L133.246,63h-5.648l-6.469-25.359
			h6.539l3.305,16.125l4.641-16.125h4.898L145.129,53.789z"/>
		<path fill="#FFFFFF" d="M170.02,63.469c-3.719,0-6.746-1.141-9.082-3.422s-3.504-5.32-3.504-9.117v-0.656
			c0-2.547,0.492-4.824,1.477-6.832s2.379-3.555,4.184-4.641s3.863-1.629,6.176-1.629c3.469,0,6.199,1.094,8.191,3.281
			s2.988,5.289,2.988,9.305v2.766h-16.148c0.219,1.656,0.879,2.984,1.98,3.984s2.496,1.5,4.184,1.5c2.609,0,4.648-0.945,6.117-2.836
			l3.328,3.727c-1.016,1.438-2.391,2.559-4.125,3.363S172.129,63.469,170.02,63.469z M169.246,42.633
			c-1.344,0-2.434,0.455-3.27,1.366c-0.836,0.91-1.371,2.213-1.605,3.908h9.422v-0.542c-0.031-1.507-0.438-2.672-1.219-3.496
			C171.793,43.045,170.684,42.633,169.246,42.633z"/>
		<path fill="#FFFFFF" d="M198.543,43.992c-0.922-0.125-1.734-0.188-2.438-0.188c-2.562,0-4.242,0.867-5.039,2.602V63h-6.773V37.641
			h6.398l0.188,3.023c1.359-2.328,3.242-3.492,5.648-3.492c0.75,0,1.453,0.102,2.109,0.305L198.543,43.992z"/>
		<path fill="#FFFFFF" d="M213.027,63.469c-3.719,0-6.746-1.141-9.082-3.422s-3.504-5.32-3.504-9.117v-0.656
			c0-2.547,0.492-4.824,1.477-6.832s2.379-3.555,4.184-4.641s3.863-1.629,6.176-1.629c3.469,0,6.199,1.094,8.191,3.281
			s2.988,5.289,2.988,9.305v2.766h-16.148c0.219,1.656,0.879,2.984,1.98,3.984s2.496,1.5,4.184,1.5c2.609,0,4.648-0.945,6.117-2.836
			l3.328,3.727c-1.016,1.438-2.391,2.559-4.125,3.363S215.137,63.469,213.027,63.469z M212.254,42.633
			c-1.344,0-2.434,0.455-3.27,1.366c-0.836,0.91-1.371,2.213-1.605,3.908h9.422v-0.542c-0.031-1.507-0.438-2.672-1.219-3.496
			C214.801,43.045,213.691,42.633,212.254,42.633z"/>
		<path fill="#FFFFFF" d="M226.246,50.133c0-3.953,0.887-7.102,2.66-9.445s4.199-3.516,7.277-3.516c2.469,0,4.508,0.922,6.117,2.766
			V27h6.797v36h-6.117l-0.328-2.695c-1.688,2.109-3.859,3.164-6.516,3.164c-2.984,0-5.379-1.176-7.184-3.527
			S226.246,54.32,226.246,50.133z M233.02,50.615c0,2.386,0.414,4.214,1.242,5.486s2.031,1.907,3.609,1.907
			c2.094,0,3.57-0.887,4.43-2.661V45.293c-0.844-1.774-2.305-2.661-4.383-2.661C234.652,42.633,233.02,45.294,233.02,50.615z"/>
		<path fill="#FFFFFF" d="M266.746,63V28.875h11.953c4.141,0,7.281,0.793,9.422,2.379s3.211,3.91,3.211,6.973
			c0,1.672-0.43,3.145-1.289,4.418s-2.055,2.207-3.586,2.801c1.75,0.438,3.129,1.32,4.137,2.648s1.512,2.953,1.512,4.875
			c0,3.281-1.047,5.766-3.141,7.453s-5.078,2.547-8.953,2.578H266.746z M273.777,43.172h5.203c3.547-0.062,5.32-1.477,5.32-4.242
			c0-1.547-0.449-2.66-1.348-3.34s-2.316-1.02-4.254-1.02h-4.922V43.172z M273.777,48.141v9.211h6.023
			c1.656,0,2.949-0.395,3.879-1.184s1.395-1.879,1.395-3.27c0-3.125-1.617-4.711-4.852-4.758H273.777z"/>
		<path fill="#FFFFFF" d="M306.402,53.414l4.688-15.773h7.266L308.16,66.938l-0.562,1.336c-1.516,3.312-4.016,4.969-7.5,4.969
			c-0.984,0-1.984-0.148-3-0.445v-5.133l1.031,0.023c1.281,0,2.238-0.195,2.871-0.586s1.129-1.039,1.488-1.945l0.797-2.086
			l-8.883-25.43h7.289L306.402,53.414z"/>
		<path fill="#FFFFFF" d="M351.121,54.047c0-1.328-0.469-2.348-1.406-3.059s-2.625-1.461-5.062-2.25s-4.367-1.566-5.789-2.332
			c-3.875-2.094-5.812-4.914-5.812-8.461c0-1.844,0.52-3.488,1.559-4.934s2.531-2.574,4.477-3.387s4.129-1.219,6.551-1.219
			c2.438,0,4.609,0.441,6.516,1.324s3.387,2.129,4.441,3.738s1.582,3.438,1.582,5.484h-7.031c0-1.562-0.492-2.777-1.477-3.645
			s-2.367-1.301-4.148-1.301c-1.719,0-3.055,0.363-4.008,1.09s-1.43,1.684-1.43,2.871c0,1.109,0.559,2.039,1.676,2.789
			s2.762,1.453,4.934,2.109c4,1.203,6.914,2.695,8.742,4.477s2.742,4,2.742,6.656c0,2.953-1.117,5.27-3.352,6.949
			s-5.242,2.52-9.023,2.52c-2.625,0-5.016-0.48-7.172-1.441s-3.801-2.277-4.934-3.949s-1.699-3.609-1.699-5.812h7.055
			c0,3.766,2.25,5.648,6.75,5.648c1.672,0,2.977-0.34,3.914-1.02S351.121,55.266,351.121,54.047z"/>
		<path fill="#FFFFFF" d="M373.035,58.008c1.25,0,2.266-0.344,3.047-1.031s1.188-1.602,1.219-2.742h6.352
			c-0.016,1.719-0.484,3.293-1.406,4.723s-2.184,2.539-3.785,3.328s-3.371,1.184-5.309,1.184c-3.625,0-6.484-1.152-8.578-3.457
			s-3.141-5.488-3.141-9.551v-0.445c0-3.906,1.039-7.023,3.117-9.352s4.93-3.492,8.555-3.492c3.172,0,5.715,0.902,7.629,2.707
			s2.887,4.207,2.918,7.207h-6.352c-0.031-1.319-0.438-2.392-1.219-3.216c-0.781-0.825-1.812-1.237-3.094-1.237
			c-1.578,0-2.77,0.575-3.574,1.725c-0.805,1.15-1.207,3.017-1.207,5.598v0.705c0,2.614,0.398,4.492,1.195,5.634
			C370.199,57.437,371.41,58.008,373.035,58.008z"/>
		<path fill="#FFFFFF" d="M402.215,63c-0.312-0.609-0.539-1.367-0.68-2.273c-1.641,1.828-3.773,2.742-6.398,2.742
			c-2.484,0-4.543-0.719-6.176-2.156s-2.449-3.25-2.449-5.438c0-2.688,0.996-4.75,2.988-6.188s4.871-2.164,8.637-2.18h3.117v-1.453
			c0-1.172-0.301-2.109-0.902-2.812s-1.551-1.055-2.848-1.055c-1.141,0-2.035,0.273-2.684,0.82s-0.973,1.297-0.973,2.25h-6.773
			c0-1.469,0.453-2.828,1.359-4.078s2.188-2.23,3.844-2.941s3.516-1.066,5.578-1.066c3.125,0,5.605,0.785,7.441,2.355
			s2.754,3.777,2.754,6.621v10.992c0.016,2.406,0.352,4.227,1.008,5.461V63H402.215z M396.613,58.289c1,0,1.922-0.223,2.766-0.668
			s1.469-1.043,1.875-1.793v-4.359h-2.531c-3.391,0-5.195,1.172-5.414,3.516l-0.023,0.398c0,0.844,0.297,1.539,0.891,2.086
			S395.582,58.289,396.613,58.289z"/>
		<path fill="#FFFFFF" d="M420.402,63h-6.797V27h6.797V63z"/>
		<path fill="#FFFFFF" d="M437.652,63.469c-3.719,0-6.746-1.141-9.082-3.422s-3.504-5.32-3.504-9.117v-0.656
			c0-2.547,0.492-4.824,1.477-6.832s2.379-3.555,4.184-4.641s3.863-1.629,6.176-1.629c3.469,0,6.199,1.094,8.191,3.281
			s2.988,5.289,2.988,9.305v2.766h-16.148c0.219,1.656,0.879,2.984,1.98,3.984s2.496,1.5,4.184,1.5c2.609,0,4.648-0.945,6.117-2.836
			l3.328,3.727c-1.016,1.438-2.391,2.559-4.125,3.363S439.762,63.469,437.652,63.469z M436.879,42.633
			c-1.344,0-2.434,0.455-3.27,1.366c-0.836,0.91-1.371,2.213-1.605,3.908h9.422v-0.542c-0.031-1.507-0.438-2.672-1.219-3.496
			C439.426,43.045,438.316,42.633,436.879,42.633z"/>
	</g>
	<g>
		<path fill="#FFFFFF" d="M118.387,482h-7.031l-13.688-22.453V482h-7.031v-34.125h7.031l13.711,22.5v-22.5h7.008V482z"/>
		<path fill="#FFFFFF" d="M151.527,477.688c-1.266,1.516-3.055,2.691-5.367,3.527s-4.875,1.254-7.688,1.254
			c-2.953,0-5.543-0.645-7.77-1.934s-3.945-3.16-5.156-5.613s-1.832-5.336-1.863-8.648v-2.32c0-3.406,0.574-6.355,1.723-8.848
			s2.805-4.398,4.969-5.719s4.699-1.98,7.605-1.98c4.047,0,7.211,0.965,9.492,2.895s3.633,4.738,4.055,8.426h-6.844
			c-0.312-1.953-1.004-3.383-2.074-4.289s-2.543-1.359-4.418-1.359c-2.391,0-4.211,0.898-5.461,2.695s-1.883,4.469-1.898,8.016v2.18
			c0,3.578,0.68,6.281,2.039,8.109s3.352,2.742,5.977,2.742c2.641,0,4.523-0.562,5.648-1.688v-5.883h-6.398v-5.18h13.43V477.688z"/>
		<path fill="#FFFFFF" d="M176.488,474.969H164.16L161.816,482h-7.477l12.703-34.125h6.516L186.332,482h-7.477L176.488,474.969z
			 M166.059,469.273h8.531l-4.289-12.773L166.059,469.273z"/>
		<path fill="#FFFFFF" d="M206.582,488.328h-4.102v-40.453h4.102V488.328z"/>
		<path fill="#FFFFFF" d="M238.199,469.508h-5.602V482h-7.031v-34.125h12.68c4.031,0,7.141,0.898,9.328,2.695
			s3.281,4.336,3.281,7.617c0,2.328-0.504,4.27-1.512,5.824s-2.535,2.793-4.582,3.715l7.383,13.945V482h-7.547L238.199,469.508z
			 M232.598,463.812h5.672c1.766,0,3.133-0.449,4.102-1.348s1.453-2.137,1.453-3.715c0-1.609-0.457-2.875-1.371-3.797
			s-2.316-1.383-4.207-1.383h-5.648V463.812z"/>
		<path fill="#FFFFFF" d="M267.426,482.469c-3.719,0-6.746-1.141-9.082-3.422s-3.504-5.32-3.504-9.117v-0.656
			c0-2.547,0.492-4.824,1.477-6.832s2.379-3.555,4.184-4.641s3.863-1.629,6.176-1.629c3.469,0,6.199,1.094,8.191,3.281
			s2.988,5.289,2.988,9.305v2.766h-16.148c0.219,1.656,0.879,2.984,1.98,3.984s2.496,1.5,4.184,1.5c2.609,0,4.648-0.945,6.117-2.836
			l3.328,3.727c-1.016,1.438-2.391,2.559-4.125,3.363S269.535,482.469,267.426,482.469z M266.652,461.633
			c-1.344,0-2.434,0.455-3.27,1.365c-0.836,0.911-1.371,2.213-1.605,3.908h9.422v-0.542c-0.031-1.506-0.438-2.672-1.219-3.495
			C269.199,462.045,268.09,461.633,266.652,461.633z"/>
		<path fill="#FFFFFF" d="M295.434,474.992c0-0.828-0.41-1.48-1.23-1.957s-2.137-0.902-3.949-1.277
			c-6.031-1.266-9.047-3.828-9.047-7.688c0-2.25,0.934-4.129,2.801-5.637s4.309-2.262,7.324-2.262c3.219,0,5.793,0.758,7.723,2.273
			s2.895,3.484,2.895,5.906h-6.773c0-0.969-0.312-1.77-0.938-2.402s-1.602-0.949-2.93-0.949c-1.141,0-2.023,0.258-2.648,0.773
			s-0.938,1.172-0.938,1.969c0,0.75,0.355,1.355,1.066,1.816s1.91,0.859,3.598,1.195s3.109,0.715,4.266,1.137
			c3.578,1.312,5.367,3.586,5.367,6.82c0,2.312-0.992,4.184-2.977,5.613s-4.547,2.145-7.688,2.145c-2.125,0-4.012-0.379-5.66-1.137
			s-2.941-1.797-3.879-3.117s-1.406-2.746-1.406-4.277h6.422c0.062,1.203,0.508,2.125,1.336,2.766s1.938,0.961,3.328,0.961
			c1.297,0,2.277-0.246,2.941-0.738S295.434,475.789,295.434,474.992z"/>
		<path fill="#FFFFFF" d="M318.051,482.469c-3.719,0-6.746-1.141-9.082-3.422s-3.504-5.32-3.504-9.117v-0.656
			c0-2.547,0.492-4.824,1.477-6.832s2.379-3.555,4.184-4.641s3.863-1.629,6.176-1.629c3.469,0,6.199,1.094,8.191,3.281
			s2.988,5.289,2.988,9.305v2.766h-16.148c0.219,1.656,0.879,2.984,1.98,3.984s2.496,1.5,4.184,1.5c2.609,0,4.648-0.945,6.117-2.836
			l3.328,3.727c-1.016,1.438-2.391,2.559-4.125,3.363S320.16,482.469,318.051,482.469z M317.277,461.633
			c-1.344,0-2.434,0.455-3.27,1.365c-0.836,0.911-1.371,2.213-1.605,3.908h9.422v-0.542c-0.031-1.506-0.438-2.672-1.219-3.495
			C319.824,462.045,318.715,461.633,317.277,461.633z"/>
		<path fill="#FFFFFF" d="M347.02,482c-0.312-0.609-0.539-1.367-0.68-2.273c-1.641,1.828-3.773,2.742-6.398,2.742
			c-2.484,0-4.543-0.719-6.176-2.156s-2.449-3.25-2.449-5.438c0-2.688,0.996-4.75,2.988-6.188s4.871-2.164,8.637-2.18h3.117v-1.453
			c0-1.172-0.301-2.109-0.902-2.812s-1.551-1.055-2.848-1.055c-1.141,0-2.035,0.273-2.684,0.82s-0.973,1.297-0.973,2.25h-6.773
			c0-1.469,0.453-2.828,1.359-4.078s2.188-2.23,3.844-2.941s3.516-1.066,5.578-1.066c3.125,0,5.605,0.785,7.441,2.355
			s2.754,3.777,2.754,6.621v10.992c0.016,2.406,0.352,4.227,1.008,5.461V482H347.02z M341.418,477.289c1,0,1.922-0.223,2.766-0.668
			s1.469-1.043,1.875-1.793v-4.359h-2.531c-3.391,0-5.195,1.172-5.414,3.516l-0.023,0.398c0,0.844,0.297,1.539,0.891,2.086
			S340.387,477.289,341.418,477.289z"/>
		<path fill="#FFFFFF" d="M372.309,462.992c-0.922-0.125-1.734-0.188-2.438-0.188c-2.562,0-4.242,0.867-5.039,2.602V482h-6.773
			v-25.359h6.398l0.188,3.023c1.359-2.328,3.242-3.492,5.648-3.492c0.75,0,1.453,0.102,2.109,0.305L372.309,462.992z"/>
		<path fill="#FFFFFF" d="M385.668,477.008c1.25,0,2.266-0.344,3.047-1.031s1.188-1.602,1.219-2.742h6.352
			c-0.016,1.719-0.484,3.293-1.406,4.723s-2.184,2.539-3.785,3.328s-3.371,1.184-5.309,1.184c-3.625,0-6.484-1.152-8.578-3.457
			s-3.141-5.488-3.141-9.551v-0.445c0-3.906,1.039-7.023,3.117-9.352s4.93-3.492,8.555-3.492c3.172,0,5.715,0.902,7.629,2.707
			s2.887,4.207,2.918,7.207h-6.352c-0.031-1.319-0.438-2.392-1.219-3.216c-0.781-0.825-1.812-1.237-3.094-1.237
			c-1.578,0-2.77,0.575-3.574,1.726c-0.805,1.149-1.207,3.017-1.207,5.598v0.704c0,2.614,0.398,4.492,1.195,5.634
			C382.832,476.437,384.043,477.008,385.668,477.008z"/>
		<path fill="#FFFFFF" d="M406.762,459.406c1.797-2.156,4.055-3.234,6.773-3.234c5.5,0,8.289,3.195,8.367,9.586V482h-6.773v-16.092
			c0-1.456-0.312-2.533-0.938-3.229c-0.625-0.697-1.664-1.046-3.117-1.046c-1.984,0-3.422,0.768-4.312,2.302V482h-6.773v-36h6.773
			V459.406z"/>
	</g>
	<g>
	</g>
	<g>
	</g>
	<g>
	</g>
	<g>
	</g>
	<g>
	</g>
	<g>
	</g>
	<g>
	</g>
	<g>
	</g>
	<g>
	</g>
	<g>
	</g>
	<g>
	</g>
	<g>
	</g>
	<g>
	</g>
	<g>
	</g>
	<g>
	</g>
</g>
</svg>
