<?xml version="1.0" encoding="utf-8"?>
<!-- Generator: Adobe Illustrator 16.0.4, SVG Export Plug-In . SVG Version: 6.00 Build 0)  -->
<!DOCTYPE svg PUBLIC "-//W3C//DTD SVG 1.1//EN" "http://www.w3.org/Graphics/SVG/1.1/DTD/svg11.dtd">
<svg version="1.1" id="Layer_1" xmlns="http://www.w3.org/2000/svg" xmlns:xlink="http://www.w3.org/1999/xlink" x="0px" y="0px"
	 width="96px" height="96px" viewBox="0 0 96 96" enable-background="new 0 0 96 96" xml:space="preserve">
<path fill="#171C1F" d="M93,7.615C93,4.74,90.408,2,87.716,2H6.876C4.183,2,2,4.74,2,7.615v80.18C2,90.669,4.183,93,6.876,93h80.84
	C90.408,93,93,90.669,93,87.795V7.615z"/>
<path fill="none" stroke="#000000" stroke-miterlimit="10" d="M92.5,7.497c0-2.76-2.091-4.997-4.671-4.997H7.171
	C4.591,2.5,2.5,4.737,2.5,7.497v80.007c0,2.759,2.091,4.996,4.671,4.996h80.658c2.58,0,4.671-2.237,4.671-4.996V7.497z"/>
<g id="nga">
	<g>
		<linearGradient id="SVGID_1_" gradientUnits="userSpaceOnUse" x1="41.8521" y1="27.0728" x2="41.8521" y2="39.8901">
			<stop  offset="0" style="stop-color:#3681BF"/>
			<stop  offset="1" style="stop-color:#48ACFF"/>
		</linearGradient>
		<polygon fill="url(#SVGID_1_)" stroke="#000000" stroke-width="0.25" stroke-miterlimit="10" points="36.387,39.89 47.317,33.48 
			36.387,27.073 		"/>
		<linearGradient id="SVGID_2_" gradientUnits="userSpaceOnUse" x1="30.4106" y1="41.1133" x2="30.4106" y2="53.4829">
			<stop  offset="0" style="stop-color:#3681BF"/>
			<stop  offset="1" style="stop-color:#48ACFF"/>
		</linearGradient>
		<polygon fill="url(#SVGID_2_)" stroke="#000000" stroke-width="0.25" stroke-miterlimit="10" points="35.686,53.482 
			35.686,41.113 25.136,47.3 		"/>
		<linearGradient id="SVGID_3_" gradientUnits="userSpaceOnUse" x1="41.8521" y1="40.8896" x2="41.8521" y2="53.7075">
			<stop  offset="0" style="stop-color:#3681BF"/>
			<stop  offset="1" style="stop-color:#48ACFF"/>
		</linearGradient>
		<polygon fill="url(#SVGID_3_)" stroke="#000000" stroke-width="0.25" stroke-miterlimit="10" points="47.317,47.3 36.387,40.89 
			36.387,53.707 		"/>
		<linearGradient id="SVGID_4_" gradientUnits="userSpaceOnUse" x1="41.8521" y1="54.709" x2="41.8521" y2="67.4844">
			<stop  offset="0" style="stop-color:#3681BF"/>
			<stop  offset="1" style="stop-color:#48ACFF"/>
		</linearGradient>
		<polygon fill="url(#SVGID_4_)" stroke="#000000" stroke-width="0.25" stroke-miterlimit="10" points="36.387,54.709 
			36.387,67.446 36.454,67.484 47.317,61.115 		"/>
		<linearGradient id="SVGID_5_" gradientUnits="userSpaceOnUse" x1="42.375" y1="61.7617" x2="42.375" y2="74.1113">
			<stop  offset="0" style="stop-color:#3681BF"/>
			<stop  offset="1" style="stop-color:#48ACFF"/>
		</linearGradient>
		<polygon fill="url(#SVGID_5_)" stroke="#000000" stroke-width="0.25" stroke-miterlimit="10" points="47.605,61.762 
			37.145,67.894 47.605,74.111 		"/>
		<linearGradient id="SVGID_6_" gradientUnits="userSpaceOnUse" x1="30.5615" y1="54.9316" x2="30.5615" y2="67.0283">
			<stop  offset="0" style="stop-color:#3681BF"/>
			<stop  offset="1" style="stop-color:#48ACFF"/>
		</linearGradient>
		<polygon fill="url(#SVGID_6_)" stroke="#000000" stroke-width="0.25" stroke-miterlimit="10" points="35.686,54.932 
			25.438,60.941 35.686,67.028 		"/>
		<linearGradient id="SVGID_7_" gradientUnits="userSpaceOnUse" x1="30.1753" y1="34.1064" x2="30.1753" y2="46.6738">
			<stop  offset="0" style="stop-color:#3681BF"/>
			<stop  offset="1" style="stop-color:#48ACFF"/>
		</linearGradient>
		<polygon fill="url(#SVGID_7_)" stroke="#000000" stroke-width="0.25" stroke-miterlimit="10" points="35.533,40.39 24.817,34.106 
			24.817,46.674 		"/>
		<linearGradient id="SVGID_8_" gradientUnits="userSpaceOnUse" x1="42.2983" y1="20.3091" x2="42.2983" y2="32.8369">
			<stop  offset="0" style="stop-color:#3681BF"/>
			<stop  offset="1" style="stop-color:#48ACFF"/>
		</linearGradient>
		<polygon fill="url(#SVGID_8_)" stroke="#000000" stroke-width="0.25" stroke-miterlimit="10" points="47.605,32.837 
			47.605,20.309 36.991,26.615 		"/>
		<linearGradient id="SVGID_9_" gradientUnits="userSpaceOnUse" x1="30.4863" y1="27.3911" x2="30.4863" y2="39.666">
			<stop  offset="0" style="stop-color:#3681BF"/>
			<stop  offset="1" style="stop-color:#48ACFF"/>
		</linearGradient>
		<polygon fill="url(#SVGID_9_)" stroke="#000000" stroke-width="0.25" stroke-miterlimit="10" points="35.686,39.666 
			35.686,27.391 25.287,33.569 		"/>
		
			<linearGradient id="SVGID_10_" gradientUnits="userSpaceOnUse" x1="-226.1489" y1="27.0732" x2="-226.1489" y2="39.8906" gradientTransform="matrix(-1 0 0 1 -172 0)">
			<stop  offset="0" style="stop-color:#3681BF"/>
			<stop  offset="1" style="stop-color:#48ACFF"/>
		</linearGradient>
		<polygon fill="url(#SVGID_10_)" stroke="#000000" stroke-width="0.25" stroke-miterlimit="10" points="59.614,39.89 48.683,33.48 
			59.614,27.073 		"/>
		
			<linearGradient id="SVGID_11_" gradientUnits="userSpaceOnUse" x1="-237.5894" y1="41.1138" x2="-237.5894" y2="53.4819" gradientTransform="matrix(-1 0 0 1 -172 0)">
			<stop  offset="0" style="stop-color:#3681BF"/>
			<stop  offset="1" style="stop-color:#48ACFF"/>
		</linearGradient>
		<polygon fill="url(#SVGID_11_)" stroke="#000000" stroke-width="0.25" stroke-miterlimit="10" points="60.313,53.482 
			60.313,41.113 70.864,47.3 		"/>
		
			<linearGradient id="SVGID_12_" gradientUnits="userSpaceOnUse" x1="-226.1489" y1="40.8901" x2="-226.1489" y2="53.7065" gradientTransform="matrix(-1 0 0 1 -172 0)">
			<stop  offset="0" style="stop-color:#3681BF"/>
			<stop  offset="1" style="stop-color:#48ACFF"/>
		</linearGradient>
		<polygon fill="url(#SVGID_12_)" stroke="#000000" stroke-width="0.25" stroke-miterlimit="10" points="48.683,47.3 59.614,40.89 
			59.614,53.707 		"/>
		
			<linearGradient id="SVGID_13_" gradientUnits="userSpaceOnUse" x1="-226.1489" y1="54.708" x2="-226.1489" y2="67.4834" gradientTransform="matrix(-1 0 0 1 -172 0)">
			<stop  offset="0" style="stop-color:#3681BF"/>
			<stop  offset="1" style="stop-color:#48ACFF"/>
		</linearGradient>
		<polygon fill="url(#SVGID_13_)" stroke="#000000" stroke-width="0.25" stroke-miterlimit="10" points="59.614,54.709 
			59.614,67.446 59.547,67.484 48.683,61.115 		"/>
		
			<linearGradient id="SVGID_14_" gradientUnits="userSpaceOnUse" x1="-225.6265" y1="61.7607" x2="-225.6265" y2="74.1104" gradientTransform="matrix(-1 0 0 1 -172 0)">
			<stop  offset="0" style="stop-color:#3681BF"/>
			<stop  offset="1" style="stop-color:#48ACFF"/>
		</linearGradient>
		<polygon fill="url(#SVGID_14_)" stroke="#000000" stroke-width="0.25" stroke-miterlimit="10" points="48.395,61.762 
			58.858,67.894 48.395,74.111 		"/>
		
			<linearGradient id="SVGID_15_" gradientUnits="userSpaceOnUse" x1="-237.4385" y1="54.9307" x2="-237.4385" y2="67.0273" gradientTransform="matrix(-1 0 0 1 -172 0)">
			<stop  offset="0" style="stop-color:#3681BF"/>
			<stop  offset="1" style="stop-color:#48ACFF"/>
		</linearGradient>
		<polygon fill="url(#SVGID_15_)" stroke="#000000" stroke-width="0.25" stroke-miterlimit="10" points="60.313,54.932 
			70.562,60.941 60.313,67.028 		"/>
		<linearGradient id="SVGID_16_" gradientUnits="userSpaceOnUse" x1="60.4678" y1="54.209" x2="71.1826" y2="54.209">
			<stop  offset="0" style="stop-color:#3681BF"/>
			<stop  offset="1" style="stop-color:#48ACFF"/>
		</linearGradient>
		<polygon fill="url(#SVGID_16_)" stroke="#000000" stroke-width="0.25" stroke-miterlimit="10" points="71.183,47.926 
			71.183,60.491 60.468,54.207 		"/>
		
			<linearGradient id="SVGID_17_" gradientUnits="userSpaceOnUse" x1="-225.7017" y1="20.3096" x2="-225.7017" y2="32.8374" gradientTransform="matrix(-1 0 0 1 -172 0)">
			<stop  offset="0" style="stop-color:#3681BF"/>
			<stop  offset="1" style="stop-color:#48ACFF"/>
		</linearGradient>
		<polygon fill="url(#SVGID_17_)" stroke="#000000" stroke-width="0.25" stroke-miterlimit="10" points="48.395,32.837 
			48.395,20.309 59.009,26.615 		"/>
		
			<linearGradient id="SVGID_18_" gradientUnits="userSpaceOnUse" x1="-237.5151" y1="27.3916" x2="-237.5151" y2="39.6665" gradientTransform="matrix(-1 0 0 1 -172 0)">
			<stop  offset="0" style="stop-color:#3681BF"/>
			<stop  offset="1" style="stop-color:#48ACFF"/>
		</linearGradient>
		<polygon fill="url(#SVGID_18_)" stroke="#000000" stroke-width="0.25" stroke-miterlimit="10" points="60.313,39.666 
			60.313,27.391 70.716,33.569 		"/>
	</g>
	<g>
		<path fill="#FFFFFF" d="M9.702,11.588V14H7.988V6.891h2.837c0.543,0,1.024,0.1,1.443,0.3s0.742,0.485,0.972,0.854
			s0.344,0.789,0.344,1.257c0,0.693-0.248,1.248-0.745,1.663s-1.178,0.623-2.043,0.623H9.702z M9.702,10.265h1.123
			c0.332,0,0.585-0.083,0.759-0.249s0.261-0.4,0.261-0.703c0-0.332-0.089-0.597-0.269-0.796s-0.423-0.299-0.732-0.303H9.702V10.265z
			"/>
		<path fill="#FFFFFF" d="M14.15,11.31c0-0.527,0.103-0.997,0.308-1.409s0.5-0.729,0.884-0.95s0.835-0.332,1.353-0.332
			c0.791,0,1.415,0.245,1.87,0.735s0.684,1.156,0.684,2v0.059c0,0.824-0.229,1.477-0.686,1.96s-1.077,0.725-1.858,0.725
			c-0.752,0-1.356-0.226-1.812-0.676s-0.702-1.062-0.737-1.833L14.15,11.31z M15.795,11.412c0,0.488,0.077,0.846,0.229,1.074
			s0.379,0.342,0.679,0.342c0.586,0,0.885-0.451,0.898-1.353V11.31c0-0.947-0.303-1.421-0.908-1.421
			c-0.55,0-0.848,0.409-0.894,1.226L15.795,11.412z"/>
		<path fill="#FFFFFF" d="M24.536,11.832l0.532-3.115h1.577L25.4,14h-1.392l-0.874-3.135L22.255,14h-1.392l-1.245-5.283h1.577
			l0.522,3.188l0.84-3.188h1.147L24.536,11.832z"/>
		<path fill="#FFFFFF" d="M29.79,14.098c-0.811,0-1.466-0.242-1.968-0.725s-0.752-1.112-0.752-1.887v-0.137
			c0-0.541,0.1-1.017,0.3-1.431s0.492-0.733,0.876-0.959s0.84-0.339,1.367-0.339c0.742,0,1.328,0.23,1.758,0.691
			s0.645,1.103,0.645,1.926v0.64h-3.271c0.059,0.296,0.187,0.529,0.386,0.698s0.456,0.254,0.771,0.254
			c0.521,0,0.928-0.182,1.221-0.547l0.752,0.889c-0.205,0.283-0.496,0.509-0.872,0.676S30.223,14.098,29.79,14.098z M29.604,9.889
			c-0.482,0-0.768,0.319-0.859,0.957h1.66v-0.127c0.006-0.264-0.06-0.468-0.2-0.613S29.864,9.889,29.604,9.889z"/>
		<path fill="#FFFFFF" d="M35.874,10.206l-0.542-0.039c-0.518,0-0.85,0.163-0.996,0.488V14H32.69V8.717h1.543l0.054,0.679
			c0.277-0.518,0.663-0.776,1.157-0.776c0.176,0,0.329,0.02,0.459,0.059L35.874,10.206z"/>
		<path fill="#FFFFFF" d="M38.93,14.098c-0.811,0-1.466-0.242-1.968-0.725s-0.752-1.112-0.752-1.887v-0.137
			c0-0.541,0.1-1.017,0.3-1.431s0.492-0.733,0.876-0.959s0.84-0.339,1.367-0.339c0.742,0,1.328,0.23,1.758,0.691
			s0.645,1.103,0.645,1.926v0.64h-3.271c0.059,0.296,0.187,0.529,0.386,0.698s0.456,0.254,0.771,0.254
			c0.521,0,0.928-0.182,1.221-0.547l0.752,0.889c-0.205,0.283-0.496,0.509-0.872,0.676S39.363,14.098,38.93,14.098z M38.745,9.889
			c-0.482,0-0.768,0.319-0.859,0.957h1.66v-0.127c0.006-0.264-0.06-0.468-0.2-0.613S39.005,9.889,38.745,9.889z"/>
		<path fill="#FFFFFF" d="M41.611,11.319c0-0.836,0.181-1.496,0.542-1.978s0.866-0.723,1.514-0.723c0.473,0,0.869,0.186,1.191,0.557
			V6.5h1.65V14h-1.479l-0.083-0.566c-0.339,0.443-0.768,0.664-1.289,0.664c-0.628,0-1.126-0.241-1.494-0.723
			S41.611,12.208,41.611,11.319z M43.256,11.422c0,0.938,0.273,1.406,0.82,1.406c0.364,0,0.625-0.153,0.781-0.459v-2.012
			c-0.149-0.312-0.407-0.469-0.771-0.469c-0.508,0-0.783,0.41-0.825,1.23L43.256,11.422z"/>
		<path fill="#FFFFFF" d="M50.01,14V6.891h2.553c0.916,0,1.611,0.167,2.088,0.503s0.715,0.822,0.715,1.46
			c0,0.368-0.084,0.682-0.254,0.942c-0.168,0.26-0.418,0.453-0.746,0.576c0.371,0.098,0.656,0.28,0.854,0.547
			c0.199,0.267,0.299,0.592,0.299,0.977c0,0.697-0.221,1.22-0.662,1.57S53.762,13.994,52.895,14H50.01z M51.723,9.854h0.895
			c0.373-0.003,0.641-0.072,0.801-0.206c0.158-0.134,0.238-0.332,0.238-0.593c0-0.3-0.086-0.517-0.258-0.649
			c-0.174-0.132-0.451-0.198-0.836-0.198h-0.84V9.854z M51.723,10.978v1.704h1.123c0.311,0,0.547-0.071,0.713-0.212
			s0.25-0.341,0.25-0.598c0-0.592-0.295-0.89-0.885-0.894H51.723z"/>
		<path fill="#FFFFFF" d="M58.496,11.695l0.879-2.979h1.762l-2.152,6.167l-0.094,0.225c-0.305,0.684-0.846,1.025-1.621,1.025
			c-0.215,0-0.441-0.032-0.678-0.097v-1.172h0.215c0.23,0,0.406-0.033,0.529-0.1c0.121-0.067,0.213-0.187,0.271-0.359l0.131-0.352
			l-1.836-5.336h1.758L58.496,11.695z"/>
		<path fill="#FFFFFF" d="M67.797,12.11c0-0.25-0.088-0.446-0.266-0.586s-0.488-0.285-0.936-0.435
			c-0.445-0.15-0.811-0.294-1.094-0.435c-0.92-0.453-1.381-1.074-1.381-1.865c0-0.394,0.115-0.741,0.344-1.042
			c0.23-0.301,0.555-0.536,0.975-0.703s0.891-0.251,1.416-0.251c0.51,0,0.969,0.091,1.375,0.273
			c0.404,0.182,0.719,0.442,0.943,0.779S69.512,8.567,69.512,9h-1.709c0-0.29-0.09-0.514-0.266-0.674
			c-0.178-0.16-0.418-0.239-0.721-0.239c-0.307,0-0.549,0.067-0.725,0.203c-0.178,0.135-0.268,0.307-0.268,0.515
			c0,0.182,0.098,0.348,0.293,0.496s0.539,0.301,1.031,0.459c0.49,0.158,0.895,0.328,1.211,0.51
			c0.768,0.443,1.152,1.053,1.152,1.831c0,0.622-0.234,1.11-0.703,1.465s-1.111,0.532-1.93,0.532c-0.576,0-1.098-0.104-1.564-0.31
			s-0.818-0.49-1.055-0.85s-0.354-0.774-0.354-1.243h1.719c0,0.381,0.098,0.662,0.295,0.842s0.518,0.271,0.959,0.271
			c0.283,0,0.508-0.061,0.672-0.183S67.797,12.332,67.797,12.11z"/>
		<path fill="#FFFFFF" d="M72.549,12.828c0.23,0,0.41-0.062,0.537-0.188s0.188-0.3,0.186-0.525h1.543
			c0,0.58-0.207,1.055-0.623,1.426c-0.414,0.371-0.949,0.557-1.604,0.557c-0.77,0-1.375-0.241-1.816-0.723
			c-0.443-0.482-0.664-1.149-0.664-2.002v-0.068c0-0.534,0.098-1.005,0.295-1.414s0.48-0.723,0.852-0.942s0.811-0.33,1.318-0.33
			c0.688,0,1.232,0.19,1.637,0.571c0.402,0.381,0.605,0.897,0.605,1.548h-1.543c0-0.273-0.066-0.483-0.201-0.63
			c-0.133-0.146-0.312-0.22-0.537-0.22c-0.426,0-0.676,0.272-0.746,0.815c-0.023,0.172-0.035,0.41-0.035,0.713
			c0,0.531,0.064,0.898,0.191,1.104S72.271,12.828,72.549,12.828z"/>
		<path fill="#FFFFFF" d="M78.486,14c-0.059-0.107-0.111-0.265-0.156-0.474c-0.303,0.381-0.727,0.571-1.27,0.571
			c-0.498,0-0.922-0.15-1.27-0.452c-0.35-0.301-0.523-0.68-0.523-1.135c0-0.573,0.213-1.006,0.635-1.299
			c0.424-0.293,1.039-0.439,1.846-0.439h0.508v-0.28c0-0.487-0.209-0.731-0.629-0.731c-0.391,0-0.586,0.193-0.586,0.579h-1.646
			c0-0.511,0.219-0.925,0.652-1.244c0.436-0.319,0.988-0.478,1.662-0.478s1.207,0.165,1.598,0.493s0.59,0.78,0.6,1.353v2.339
			c0.008,0.485,0.082,0.856,0.225,1.113V14H78.486z M77.455,12.926c0.205,0,0.375-0.044,0.512-0.132
			c0.135-0.088,0.23-0.187,0.289-0.298v-0.845h-0.479c-0.572,0-0.859,0.257-0.859,0.771c0,0.15,0.051,0.271,0.152,0.364
			C77.17,12.879,77.299,12.926,77.455,12.926z"/>
		<path fill="#FFFFFF" d="M82.553,14h-1.65V6.5h1.65V14z"/>
		<path fill="#FFFFFF" d="M86.123,14.098c-0.811,0-1.467-0.242-1.969-0.725c-0.5-0.483-0.752-1.112-0.752-1.887v-0.137
			c0-0.541,0.102-1.017,0.301-1.431c0.201-0.414,0.492-0.733,0.877-0.959c0.383-0.226,0.84-0.339,1.367-0.339
			c0.742,0,1.328,0.23,1.758,0.691s0.645,1.103,0.645,1.926v0.64h-3.271c0.059,0.296,0.188,0.529,0.385,0.698
			c0.199,0.169,0.457,0.254,0.771,0.254c0.521,0,0.928-0.182,1.221-0.547l0.752,0.889c-0.205,0.283-0.494,0.509-0.871,0.676
			C86.961,14.014,86.555,14.098,86.123,14.098z M85.938,9.889c-0.482,0-0.77,0.319-0.859,0.957h1.66v-0.127
			c0.006-0.264-0.061-0.468-0.201-0.613C86.398,9.961,86.197,9.889,85.938,9.889z"/>
	</g>
	<g>
		<path fill="#FFFFFF" d="M19.194,85.667H17.49l-2.52-4.424v4.424h-1.714v-7.109h1.714l2.515,4.424v-4.424h1.709V85.667z"/>
		<path fill="#FFFFFF" d="M26.098,84.788c-0.264,0.293-0.649,0.529-1.157,0.708s-1.064,0.269-1.67,0.269
			c-0.931,0-1.675-0.285-2.231-0.854s-0.854-1.362-0.894-2.378l-0.005-0.615c0-0.7,0.124-1.311,0.371-1.834
			c0.248-0.521,0.602-0.924,1.062-1.205c0.46-0.282,0.994-0.423,1.599-0.423c0.885,0,1.573,0.202,2.063,0.608
			c0.49,0.404,0.775,1.01,0.857,1.813h-1.65c-0.059-0.397-0.186-0.681-0.381-0.85s-0.472-0.254-0.83-0.254
			c-0.43,0-0.762,0.183-0.996,0.547s-0.353,0.886-0.356,1.562v0.43c0,0.71,0.121,1.243,0.364,1.599
			c0.243,0.357,0.624,0.535,1.145,0.535c0.446,0,0.778-0.1,0.996-0.298v-1.104h-1.191v-1.177h2.905V84.788z"/>
		<path fill="#FFFFFF" d="M31.132,84.339h-2.349l-0.41,1.328h-1.831l2.607-7.109h1.611l2.627,7.109h-1.841L31.132,84.339z
			 M29.194,83.016h1.528l-0.767-2.466L29.194,83.016z"/>
		<path fill="#FFFFFF" d="M37.597,86.985h-0.898v-8.428h0.898V86.985z"/>
		<path fill="#FFFFFF" d="M44.082,83.152h-0.928v2.515H41.44v-7.109h2.798c0.843,0,1.502,0.187,1.978,0.561s0.713,0.902,0.713,1.586
			c0,0.494-0.1,0.903-0.3,1.229s-0.514,0.589-0.94,0.79l1.484,2.871v0.073h-1.836L44.082,83.152z M43.154,81.834h1.084
			c0.326,0,0.57-0.086,0.735-0.257c0.165-0.172,0.247-0.41,0.247-0.717c0-0.308-0.083-0.548-0.249-0.723s-0.41-0.262-0.732-0.262
			h-1.084V81.834z"/>
		<path fill="#FFFFFF" d="M50.443,85.765c-0.811,0-1.466-0.242-1.967-0.725c-0.501-0.484-0.752-1.113-0.752-1.888v-0.137
			c0-0.54,0.1-1.018,0.3-1.431s0.492-0.733,0.876-0.959c0.384-0.227,0.839-0.34,1.367-0.34c0.742,0,1.328,0.23,1.758,0.691
			c0.43,0.46,0.645,1.103,0.645,1.926v0.64h-3.271c0.059,0.296,0.188,0.529,0.387,0.698c0.198,0.169,0.455,0.254,0.771,0.254
			c0.52,0,0.928-0.183,1.221-0.547l0.752,0.889c-0.205,0.283-0.496,0.509-0.873,0.676C51.281,85.681,50.877,85.765,50.443,85.765z
			 M50.258,81.556c-0.481,0-0.768,0.319-0.859,0.957h1.66v-0.127c0.006-0.264-0.061-0.468-0.199-0.613
			C50.719,81.628,50.519,81.556,50.258,81.556z"/>
		<path fill="#FFFFFF" d="M56.098,84.183c0-0.14-0.072-0.252-0.219-0.337s-0.426-0.173-0.836-0.264s-0.748-0.211-1.016-0.358
			c-0.266-0.148-0.471-0.328-0.609-0.54c-0.141-0.212-0.211-0.454-0.211-0.728c0-0.485,0.201-0.885,0.602-1.199
			c0.4-0.313,0.924-0.471,1.572-0.471c0.695,0,1.256,0.158,1.68,0.474c0.422,0.315,0.635,0.73,0.635,1.245h-1.65
			c0-0.423-0.223-0.635-0.67-0.635c-0.172,0-0.316,0.048-0.434,0.145c-0.117,0.096-0.176,0.215-0.176,0.358
			c0,0.146,0.07,0.266,0.215,0.356c0.143,0.091,0.371,0.166,0.686,0.225s0.59,0.129,0.828,0.21c0.793,0.273,1.191,0.764,1.191,1.47
			c0,0.481-0.215,0.874-0.643,1.177s-0.982,0.454-1.662,0.454c-0.453,0-0.857-0.081-1.211-0.244
			c-0.355-0.163-0.633-0.384-0.83-0.664c-0.199-0.28-0.299-0.574-0.299-0.884h1.539c0.006,0.244,0.088,0.423,0.244,0.534
			c0.156,0.113,0.355,0.169,0.6,0.169c0.225,0,0.395-0.046,0.506-0.137C56.043,84.448,56.098,84.329,56.098,84.183z"/>
		<path fill="#FFFFFF" d="M61.01,85.765c-0.811,0-1.467-0.242-1.967-0.725c-0.502-0.484-0.752-1.113-0.752-1.888v-0.137
			c0-0.54,0.1-1.018,0.299-1.431c0.201-0.413,0.494-0.733,0.877-0.959c0.385-0.227,0.84-0.34,1.367-0.34
			c0.742,0,1.328,0.23,1.758,0.691c0.43,0.46,0.645,1.103,0.645,1.926v0.64h-3.271c0.059,0.296,0.188,0.529,0.387,0.698
			c0.197,0.169,0.455,0.254,0.771,0.254c0.52,0,0.928-0.183,1.221-0.547l0.752,0.889c-0.205,0.283-0.496,0.509-0.873,0.676
			C61.848,85.681,61.443,85.765,61.01,85.765z M60.824,81.556c-0.48,0-0.768,0.319-0.859,0.957h1.66v-0.127
			c0.008-0.264-0.061-0.468-0.199-0.613C61.285,81.628,61.086,81.556,60.824,81.556z"/>
		<path fill="#FFFFFF" d="M66.875,85.667c-0.059-0.107-0.111-0.266-0.156-0.474c-0.303,0.381-0.727,0.571-1.27,0.571
			c-0.498,0-0.922-0.15-1.27-0.451c-0.35-0.302-0.523-0.68-0.523-1.136c0-0.573,0.213-1.006,0.635-1.299
			c0.424-0.293,1.039-0.439,1.846-0.439h0.508V82.16c0-0.487-0.209-0.731-0.629-0.731c-0.391,0-0.586,0.193-0.586,0.579h-1.646
			c0-0.511,0.219-0.925,0.652-1.244c0.436-0.318,0.988-0.478,1.662-0.478s1.207,0.164,1.598,0.493s0.59,0.779,0.6,1.353v2.339
			c0.008,0.485,0.082,0.856,0.225,1.113v0.083H66.875z M65.844,84.593c0.205,0,0.375-0.044,0.512-0.132
			c0.135-0.088,0.23-0.188,0.289-0.298v-0.845h-0.479c-0.572,0-0.859,0.257-0.859,0.771c0,0.149,0.051,0.271,0.152,0.364
			C65.559,84.546,65.688,84.593,65.844,84.593z"/>
		<path fill="#FFFFFF" d="M72.402,81.873l-0.543-0.039c-0.518,0-0.85,0.163-0.996,0.488v3.345h-1.645v-5.283h1.543l0.053,0.679
			c0.277-0.518,0.662-0.776,1.158-0.776c0.176,0,0.328,0.02,0.459,0.059L72.402,81.873z"/>
		<path fill="#FFFFFF" d="M75.137,84.495c0.23,0,0.41-0.062,0.537-0.188c0.127-0.126,0.188-0.301,0.186-0.525h1.543
			c0,0.579-0.207,1.055-0.623,1.426c-0.414,0.371-0.949,0.557-1.604,0.557c-0.77,0-1.375-0.241-1.816-0.723
			c-0.443-0.481-0.664-1.149-0.664-2.002v-0.068c0-0.534,0.098-1.005,0.295-1.414c0.197-0.408,0.48-0.723,0.852-0.941
			c0.371-0.221,0.811-0.33,1.318-0.33c0.688,0,1.232,0.19,1.637,0.571c0.402,0.381,0.605,0.896,0.605,1.548h-1.543
			c0-0.273-0.066-0.483-0.201-0.63c-0.133-0.146-0.312-0.22-0.537-0.22c-0.426,0-0.676,0.271-0.746,0.815
			c-0.023,0.173-0.035,0.41-0.035,0.713c0,0.53,0.064,0.898,0.191,1.104S74.859,84.495,75.137,84.495z"/>
		<path fill="#FFFFFF" d="M79.707,80.95c0.352-0.442,0.801-0.664,1.348-0.664c0.582,0,1.021,0.173,1.318,0.518
			c0.295,0.345,0.447,0.854,0.453,1.528v3.335h-1.65v-3.296c0-0.28-0.057-0.485-0.17-0.618c-0.115-0.131-0.309-0.197-0.582-0.197
			c-0.338,0-0.578,0.107-0.717,0.322v3.789h-1.646v-7.5h1.646V80.95z"/>
	</g>
</g>
<g>
</g>
<g>
</g>
<g>
</g>
<g>
</g>
<g>
</g>
<g>
</g>
<g>
</g>
<g>
</g>
<g>
</g>
<g>
</g>
<g>
</g>
<g>
</g>
<g>
</g>
<g>
</g>
<g>
</g>
</svg>
