<?xml version="1.0" encoding="utf-8"?>
<!-- Generator: Adobe Illustrator 16.0.4, SVG Export Plug-In . SVG Version: 6.00 Build 0)  -->
<!DOCTYPE svg PUBLIC "-//W3C//DTD SVG 1.1//EN" "http://www.w3.org/Graphics/SVG/1.1/DTD/svg11.dtd">
<svg version="1.1" id="Layer_1" xmlns="http://www.w3.org/2000/svg" xmlns:xlink="http://www.w3.org/1999/xlink" x="0px" y="0px"
	 width="96px" height="96px" viewBox="0 0 96 96" enable-background="new 0 0 96 96" xml:space="preserve">
<path fill="#171C1F" d="M93,7.615C93,4.74,90.408,2,87.716,2H6.876C4.183,2,2,4.74,2,7.615v80.18C2,90.669,4.183,93,6.876,93h80.84
	C90.408,93,93,90.669,93,87.795V7.615z"/>
<path fill="none" stroke="#000000" stroke-miterlimit="10" d="M92.5,7.497c0-2.76-2.091-4.997-4.671-4.997H7.171
	C4.591,2.5,2.5,4.737,2.5,7.497v80.007c0,2.759,2.091,4.996,4.671,4.996h80.658c2.58,0,4.671-2.237,4.671-4.996V7.497z"/>
<g id="pbscale_1_">
	<g>
		<linearGradient id="SVGID_1_" gradientUnits="userSpaceOnUse" x1="41.8521" y1="27.0728" x2="41.8521" y2="39.8901">
			<stop  offset="0" style="stop-color:#3681BF"/>
			<stop  offset="1" style="stop-color:#48ACFF"/>
		</linearGradient>
		<polygon fill="url(#SVGID_1_)" stroke="#000000" stroke-width="0.25" stroke-miterlimit="10" points="36.387,39.89 47.317,33.48 
			36.387,27.073 		"/>
		<linearGradient id="SVGID_2_" gradientUnits="userSpaceOnUse" x1="30.4106" y1="41.1133" x2="30.4106" y2="53.4829">
			<stop  offset="0" style="stop-color:#3681BF"/>
			<stop  offset="1" style="stop-color:#48ACFF"/>
		</linearGradient>
		<polygon fill="url(#SVGID_2_)" stroke="#000000" stroke-width="0.25" stroke-miterlimit="10" points="35.686,53.482 
			35.686,41.113 25.136,47.3 		"/>
		<linearGradient id="SVGID_3_" gradientUnits="userSpaceOnUse" x1="41.8521" y1="40.8896" x2="41.8521" y2="53.7075">
			<stop  offset="0" style="stop-color:#3681BF"/>
			<stop  offset="1" style="stop-color:#48ACFF"/>
		</linearGradient>
		<polygon fill="url(#SVGID_3_)" stroke="#000000" stroke-width="0.25" stroke-miterlimit="10" points="47.317,47.3 36.387,40.89 
			36.387,53.707 		"/>
		<linearGradient id="SVGID_4_" gradientUnits="userSpaceOnUse" x1="41.8521" y1="54.709" x2="41.8521" y2="67.4844">
			<stop  offset="0" style="stop-color:#3681BF"/>
			<stop  offset="1" style="stop-color:#48ACFF"/>
		</linearGradient>
		<polygon fill="url(#SVGID_4_)" stroke="#000000" stroke-width="0.25" stroke-miterlimit="10" points="36.387,54.709 
			36.387,67.446 36.454,67.484 47.317,61.115 		"/>
		<linearGradient id="SVGID_5_" gradientUnits="userSpaceOnUse" x1="42.375" y1="61.7617" x2="42.375" y2="74.1113">
			<stop  offset="0" style="stop-color:#3681BF"/>
			<stop  offset="1" style="stop-color:#48ACFF"/>
		</linearGradient>
		<polygon fill="url(#SVGID_5_)" stroke="#000000" stroke-width="0.25" stroke-miterlimit="10" points="47.605,61.762 
			37.145,67.894 47.605,74.111 		"/>
		<linearGradient id="SVGID_6_" gradientUnits="userSpaceOnUse" x1="30.5615" y1="54.9316" x2="30.5615" y2="67.0283">
			<stop  offset="0" style="stop-color:#3681BF"/>
			<stop  offset="1" style="stop-color:#48ACFF"/>
		</linearGradient>
		<polygon fill="url(#SVGID_6_)" stroke="#000000" stroke-width="0.25" stroke-miterlimit="10" points="35.686,54.932 
			25.438,60.941 35.686,67.028 		"/>
		<linearGradient id="SVGID_7_" gradientUnits="userSpaceOnUse" x1="30.1753" y1="34.1064" x2="30.1753" y2="46.6738">
			<stop  offset="0" style="stop-color:#3681BF"/>
			<stop  offset="1" style="stop-color:#48ACFF"/>
		</linearGradient>
		<polygon fill="url(#SVGID_7_)" stroke="#000000" stroke-width="0.25" stroke-miterlimit="10" points="35.533,40.39 24.817,34.106 
			24.817,46.674 		"/>
		<linearGradient id="SVGID_8_" gradientUnits="userSpaceOnUse" x1="42.2983" y1="20.3091" x2="42.2983" y2="32.8369">
			<stop  offset="0" style="stop-color:#3681BF"/>
			<stop  offset="1" style="stop-color:#48ACFF"/>
		</linearGradient>
		<polygon fill="url(#SVGID_8_)" stroke="#000000" stroke-width="0.25" stroke-miterlimit="10" points="47.605,32.837 
			47.605,20.309 36.991,26.615 		"/>
		<linearGradient id="SVGID_9_" gradientUnits="userSpaceOnUse" x1="30.4863" y1="27.3911" x2="30.4863" y2="39.666">
			<stop  offset="0" style="stop-color:#3681BF"/>
			<stop  offset="1" style="stop-color:#48ACFF"/>
		</linearGradient>
		<polygon fill="url(#SVGID_9_)" stroke="#000000" stroke-width="0.25" stroke-miterlimit="10" points="35.686,39.666 
			35.686,27.391 25.287,33.569 		"/>
		
			<linearGradient id="SVGID_10_" gradientUnits="userSpaceOnUse" x1="-226.1489" y1="27.0732" x2="-226.1489" y2="39.8906" gradientTransform="matrix(-1 0 0 1 -172 0)">
			<stop  offset="0" style="stop-color:#3681BF"/>
			<stop  offset="1" style="stop-color:#48ACFF"/>
		</linearGradient>
		<polygon fill="url(#SVGID_10_)" stroke="#000000" stroke-width="0.25" stroke-miterlimit="10" points="59.614,39.89 48.683,33.48 
			59.614,27.073 		"/>
		
			<linearGradient id="SVGID_11_" gradientUnits="userSpaceOnUse" x1="-237.5894" y1="41.1138" x2="-237.5894" y2="53.4819" gradientTransform="matrix(-1 0 0 1 -172 0)">
			<stop  offset="0" style="stop-color:#3681BF"/>
			<stop  offset="1" style="stop-color:#48ACFF"/>
		</linearGradient>
		<polygon fill="url(#SVGID_11_)" stroke="#000000" stroke-width="0.25" stroke-miterlimit="10" points="60.313,53.482 
			60.313,41.113 70.864,47.3 		"/>
		
			<linearGradient id="SVGID_12_" gradientUnits="userSpaceOnUse" x1="-226.1489" y1="40.8901" x2="-226.1489" y2="53.7065" gradientTransform="matrix(-1 0 0 1 -172 0)">
			<stop  offset="0" style="stop-color:#3681BF"/>
			<stop  offset="1" style="stop-color:#48ACFF"/>
		</linearGradient>
		<polygon fill="url(#SVGID_12_)" stroke="#000000" stroke-width="0.25" stroke-miterlimit="10" points="48.683,47.3 59.614,40.89 
			59.614,53.707 		"/>
		
			<linearGradient id="SVGID_13_" gradientUnits="userSpaceOnUse" x1="-226.1489" y1="54.708" x2="-226.1489" y2="67.4834" gradientTransform="matrix(-1 0 0 1 -172 0)">
			<stop  offset="0" style="stop-color:#3681BF"/>
			<stop  offset="1" style="stop-color:#48ACFF"/>
		</linearGradient>
		<polygon fill="url(#SVGID_13_)" stroke="#000000" stroke-width="0.25" stroke-miterlimit="10" points="59.614,54.709 
			59.614,67.446 59.547,67.484 48.683,61.115 		"/>
		
			<linearGradient id="SVGID_14_" gradientUnits="userSpaceOnUse" x1="-225.6265" y1="61.7607" x2="-225.6265" y2="74.1104" gradientTransform="matrix(-1 0 0 1 -172 0)">
			<stop  offset="0" style="stop-color:#3681BF"/>
			<stop  offset="1" style="stop-color:#48ACFF"/>
		</linearGradient>
		<polygon fill="url(#SVGID_14_)" stroke="#000000" stroke-width="0.25" stroke-miterlimit="10" points="48.395,61.762 
			58.858,67.894 48.395,74.111 		"/>
		
			<linearGradient id="SVGID_15_" gradientUnits="userSpaceOnUse" x1="-237.4385" y1="54.9307" x2="-237.4385" y2="67.0273" gradientTransform="matrix(-1 0 0 1 -172 0)">
			<stop  offset="0" style="stop-color:#3681BF"/>
			<stop  offset="1" style="stop-color:#48ACFF"/>
		</linearGradient>
		<polygon fill="url(#SVGID_15_)" stroke="#000000" stroke-width="0.25" stroke-miterlimit="10" points="60.313,54.932 
			70.562,60.941 60.313,67.028 		"/>
		<linearGradient id="SVGID_16_" gradientUnits="userSpaceOnUse" x1="60.4678" y1="54.209" x2="71.1826" y2="54.209">
			<stop  offset="0" style="stop-color:#3681BF"/>
			<stop  offset="1" style="stop-color:#48ACFF"/>
		</linearGradient>
		<polygon fill="url(#SVGID_16_)" stroke="#000000" stroke-width="0.25" stroke-miterlimit="10" points="71.183,47.926 
			71.183,60.491 60.468,54.207 		"/>
		
			<linearGradient id="SVGID_17_" gradientUnits="userSpaceOnUse" x1="-225.7017" y1="20.3096" x2="-225.7017" y2="32.8374" gradientTransform="matrix(-1 0 0 1 -172 0)">
			<stop  offset="0" style="stop-color:#3681BF"/>
			<stop  offset="1" style="stop-color:#48ACFF"/>
		</linearGradient>
		<polygon fill="url(#SVGID_17_)" stroke="#000000" stroke-width="0.25" stroke-miterlimit="10" points="48.395,32.837 
			48.395,20.309 59.009,26.615 		"/>
		
			<linearGradient id="SVGID_18_" gradientUnits="userSpaceOnUse" x1="-237.5151" y1="27.3916" x2="-237.5151" y2="39.6665" gradientTransform="matrix(-1 0 0 1 -172 0)">
			<stop  offset="0" style="stop-color:#3681BF"/>
			<stop  offset="1" style="stop-color:#48ACFF"/>
		</linearGradient>
		<polygon fill="url(#SVGID_18_)" stroke="#000000" stroke-width="0.25" stroke-miterlimit="10" points="60.313,39.666 
			60.313,27.391 70.716,33.569 		"/>
	</g>
	<g id="pbscale">
		<g>
			<path fill="#FFFFFF" d="M29.895,85.425c0-0.421-0.149-0.749-0.447-0.984c-0.298-0.235-0.822-0.479-1.571-0.73
				c-0.75-0.251-1.362-0.495-1.838-0.729c-1.548-0.761-2.322-1.806-2.322-3.135c0-0.662,0.193-1.246,0.579-1.752
				c0.385-0.506,0.931-0.899,1.637-1.182c0.706-0.281,1.499-0.422,2.379-0.422c0.859,0,1.629,0.152,2.31,0.459
				c0.681,0.307,1.21,0.742,1.587,1.309s0.566,1.213,0.566,1.94h-2.872c0-0.486-0.149-0.864-0.447-1.132
				c-0.298-0.269-0.701-0.402-1.21-0.402c-0.514,0-0.92,0.113-1.219,0.341c-0.298,0.227-0.447,0.516-0.447,0.865
				c0,0.307,0.164,0.584,0.492,0.833s0.905,0.506,1.731,0.771c0.826,0.266,1.504,0.551,2.035,0.857
				c1.291,0.744,1.937,1.77,1.937,3.077c0,1.045-0.394,1.865-1.182,2.461c-0.788,0.597-1.868,0.895-3.241,0.895
				c-0.968,0-1.845-0.174-2.63-0.521c-0.785-0.348-1.375-0.823-1.772-1.428c-0.397-0.604-0.595-1.301-0.595-2.089h2.889
				c0,0.641,0.165,1.112,0.496,1.416c0.331,0.303,0.869,0.455,1.612,0.455c0.476,0,0.852-0.103,1.128-0.308
				C29.757,86.086,29.895,85.797,29.895,85.425z"/>
			<path fill="#FFFFFF" d="M39.559,86.631c0.388,0,0.689-0.104,0.902-0.315s0.317-0.505,0.312-0.882h2.593
				c0,0.974-0.35,1.772-1.046,2.396c-0.698,0.624-1.596,0.936-2.696,0.936c-1.291,0-2.308-0.404-3.052-1.214
				c-0.744-0.81-1.116-1.932-1.116-3.364v-0.115c0-0.897,0.166-1.688,0.496-2.375c0.331-0.687,0.809-1.215,1.432-1.584
				s1.362-0.554,2.215-0.554c1.154,0,2.07,0.32,2.749,0.96s1.018,1.507,1.018,2.601h-2.593c0-0.459-0.112-0.812-0.336-1.058
				c-0.225-0.247-0.525-0.37-0.903-0.37c-0.716,0-1.135,0.457-1.255,1.371c-0.038,0.29-0.057,0.688-0.057,1.197
				c0,0.892,0.106,1.51,0.32,1.854S39.094,86.631,39.559,86.631z"/>
			<path fill="#FFFFFF" d="M51.217,88.601c-0.098-0.181-0.186-0.445-0.262-0.796c-0.51,0.64-1.221,0.96-2.133,0.96
				c-0.837,0-1.549-0.253-2.134-0.759s-0.878-1.142-0.878-1.908c0-0.962,0.355-1.689,1.066-2.183
				c0.711-0.492,1.745-0.738,3.102-0.738h0.854v-0.47c0-0.819-0.354-1.229-1.059-1.229c-0.656,0-0.985,0.324-0.985,0.973h-2.765
				c0-0.857,0.364-1.554,1.095-2.09c0.73-0.535,1.662-0.803,2.793-0.803c1.133,0,2.027,0.276,2.684,0.829
				c0.656,0.552,0.992,1.31,1.01,2.272v3.93c0.01,0.815,0.137,1.439,0.377,1.871v0.14H51.217z M49.486,86.796
				c0.344,0,0.631-0.074,0.857-0.222c0.227-0.148,0.389-0.314,0.488-0.501v-1.419h-0.805c-0.963,0-1.444,0.432-1.444,1.296
				c0,0.252,0.085,0.455,0.254,0.611C49.008,86.718,49.223,86.796,49.486,86.796z"/>
			<path fill="#FFFFFF" d="M59.732,88.601h-2.773V75.997h2.773V88.601z"/>
			<path fill="#FFFFFF" d="M67.41,88.765c-1.361,0-2.463-0.406-3.307-1.219c-0.842-0.812-1.262-1.869-1.262-3.171v-0.229
				c0-0.908,0.168-1.71,0.504-2.404s0.826-1.232,1.473-1.612c0.645-0.38,1.412-0.57,2.297-0.57c1.248,0,2.232,0.387,2.955,1.161
				c0.721,0.773,1.082,1.853,1.082,3.236v1.075h-5.498c0.1,0.498,0.314,0.889,0.648,1.174c0.334,0.284,0.766,0.426,1.297,0.426
				c0.875,0,1.559-0.306,2.051-0.919l1.264,1.494c-0.344,0.476-0.832,0.854-1.465,1.136C68.818,88.624,68.139,88.765,67.41,88.765z
				 M67.1,81.691c-0.811,0-1.291,0.536-1.445,1.608h2.791v-0.213c0.01-0.443-0.102-0.786-0.336-1.03
				C67.873,81.813,67.537,81.691,67.1,81.691z"/>
		</g>
		<g>
			<path fill="#FFFFFF" d="M18.49,11.439v2.895h-2.057V5.802h3.404c0.652,0,1.229,0.12,1.731,0.36s0.891,0.582,1.166,1.025
				s0.413,0.946,0.413,1.509c0,0.832-0.298,1.497-0.894,1.995s-1.413,0.747-2.452,0.747H18.49z M18.49,9.851h1.348
				c0.398,0,0.702-0.1,0.911-0.299s0.313-0.48,0.313-0.844c0-0.398-0.107-0.717-0.322-0.955s-0.508-0.359-0.879-0.363H18.49V9.851z"
				/>
			<path fill="#FFFFFF" d="M23.828,11.105c0-0.633,0.123-1.196,0.369-1.69s0.6-0.874,1.061-1.14s1.002-0.398,1.623-0.398
				c0.949,0,1.697,0.294,2.244,0.882s0.82,1.388,0.82,2.399v0.07c0,0.988-0.274,1.772-0.823,2.353s-1.292,0.87-2.229,0.87
				c-0.902,0-1.627-0.271-2.174-0.812s-0.842-1.274-0.885-2.2L23.828,11.105z M25.802,11.228c0,0.586,0.092,1.016,0.275,1.289
				s0.455,0.41,0.814,0.41c0.703,0,1.062-0.541,1.078-1.623v-0.199c0-1.137-0.363-1.705-1.09-1.705c-0.66,0-1.018,0.49-1.072,1.471
				L25.802,11.228z"/>
			<path fill="#FFFFFF" d="M36.291,11.732l0.639-3.738h1.893l-1.494,6.34h-1.67l-1.049-3.762l-1.055,3.762h-1.67l-1.494-6.34h1.893
				l0.627,3.826l1.008-3.826h1.377L36.291,11.732z"/>
			<path fill="#FFFFFF" d="M42.595,14.451c-0.973,0-1.76-0.29-2.361-0.87s-0.902-1.335-0.902-2.265v-0.164
				c0-0.648,0.12-1.221,0.36-1.717s0.591-0.88,1.052-1.151s1.008-0.407,1.641-0.407c0.891,0,1.594,0.276,2.109,0.829
				s0.773,1.323,0.773,2.312v0.768h-3.926c0.07,0.355,0.225,0.635,0.463,0.838s0.547,0.305,0.926,0.305
				c0.625,0,1.113-0.219,1.465-0.656l0.902,1.066c-0.246,0.34-0.595,0.61-1.046,0.812S43.115,14.451,42.595,14.451z M42.373,9.4
				c-0.578,0-0.922,0.383-1.031,1.148h1.992v-0.152c0.008-0.316-0.072-0.562-0.24-0.735S42.685,9.4,42.373,9.4z"/>
			<path fill="#FFFFFF" d="M49.896,9.781l-0.65-0.047c-0.622,0-1.02,0.195-1.196,0.586v4.014h-1.975v-6.34h1.852l0.064,0.814
				c0.332-0.621,0.795-0.932,1.389-0.932c0.211,0,0.395,0.023,0.551,0.07L49.896,9.781z"/>
			<path fill="#FFFFFF" d="M53.563,14.451c-0.972,0-1.759-0.29-2.36-0.87s-0.902-1.335-0.902-2.265v-0.164
				c0-0.648,0.119-1.221,0.359-1.717s0.592-0.88,1.053-1.151s1.008-0.407,1.64-0.407c0.891,0,1.594,0.276,2.109,0.829
				s0.773,1.323,0.773,2.312v0.768h-3.925c0.07,0.355,0.225,0.635,0.463,0.838c0.237,0.203,0.546,0.305,0.925,0.305
				c0.625,0,1.113-0.219,1.465-0.656l0.902,1.066c-0.246,0.34-0.594,0.61-1.045,0.812S54.083,14.451,53.563,14.451z M53.341,9.4
				c-0.577,0-0.921,0.383-1.03,1.148h1.991v-0.152c0.008-0.316-0.072-0.562-0.24-0.735S53.653,9.4,53.341,9.4z"/>
			<path fill="#FFFFFF" d="M56.78,11.117c0-1.004,0.217-1.795,0.65-2.373s1.039-0.867,1.816-0.867c0.566,0,1.043,0.223,1.43,0.668
				V5.333h1.98v9h-1.775l-0.1-0.68c-0.406,0.531-0.922,0.797-1.547,0.797c-0.754,0-1.352-0.289-1.793-0.867
				S56.78,12.183,56.78,11.117z M58.755,11.24c0,1.125,0.328,1.688,0.984,1.688c0.438,0,0.75-0.184,0.938-0.551V9.962
				C60.497,9.587,60.188,9.4,59.751,9.4c-0.609,0-0.939,0.492-0.99,1.477L58.755,11.24z"/>
			<path fill="#FFFFFF" d="M66.858,14.333V5.802h3.064c1.098,0,1.933,0.201,2.505,0.604s0.858,0.986,0.858,1.752
				c0,0.441-0.102,0.818-0.305,1.131s-0.502,0.543-0.896,0.691c0.445,0.117,0.787,0.336,1.025,0.656s0.357,0.711,0.357,1.172
				c0,0.836-0.265,1.464-0.794,1.884s-1.313,0.634-2.353,0.642H66.858z M68.915,9.359h1.072c0.449-0.004,0.77-0.086,0.961-0.247
				c0.191-0.16,0.287-0.397,0.287-0.711c0-0.36-0.104-0.62-0.311-0.778c-0.207-0.159-0.541-0.238-1.002-0.238h-1.008V9.359z
				 M68.915,10.707v2.045h1.348c0.371,0,0.656-0.085,0.855-0.255s0.299-0.409,0.299-0.718c0-0.711-0.354-1.068-1.061-1.072H68.915z"
				/>
			<path fill="#FFFFFF" d="M77.042,11.568l1.055-3.574h2.115l-2.584,7.4l-0.111,0.27c-0.367,0.82-1.016,1.23-1.945,1.23
				c-0.258,0-0.529-0.039-0.814-0.117v-1.407h0.258c0.277,0,0.489-0.04,0.636-0.12s0.255-0.224,0.325-0.431l0.158-0.422
				l-2.203-6.403h2.109L77.042,11.568z"/>
		</g>
	</g>
</g>
<g>
</g>
<g>
</g>
<g>
</g>
<g>
</g>
<g>
</g>
<g>
</g>
<g>
</g>
<g>
</g>
<g>
</g>
<g>
</g>
<g>
</g>
<g>
</g>
<g>
</g>
<g>
</g>
<g>
</g>
</svg>
