<?xml version="1.0" encoding="utf-8"?>
<!-- Generator: Adobe Illustrator 16.0.4, SVG Export Plug-In . SVG Version: 6.00 Build 0)  -->
<!DOCTYPE svg PUBLIC "-//W3C//DTD SVG 1.1//EN" "http://www.w3.org/Graphics/SVG/1.1/DTD/svg11.dtd">
<svg version="1.1" xmlns="http://www.w3.org/2000/svg" xmlns:xlink="http://www.w3.org/1999/xlink" x="0px" y="0px" width="512px"
	 height="512px" viewBox="0 0 512 512" enable-background="new 0 0 512 512" xml:space="preserve">
<g id="Badge_Fill">
	<path fill="#171C1F" stroke="#000000" stroke-width="3" stroke-miterlimit="10" d="M12.5,474.5c0,14.912,12.088,27,27,27h433
		c14.912,0,27-12.088,27-27v-434c0-14.912-12.088-27-27-27h-433c-14.912,0-27,12.088-27,27V474.5z"/>
</g>
<g id="Scale">
	<g display="none">
		<path display="inline" fill="#F2F2F2" d="M64.198,453.471v14.713h-3.052v-36.123h12.306c3.754,0,6.719,0.959,8.894,2.878
			c2.175,1.918,3.263,4.558,3.263,7.914c0,3.391-1.046,6.008-3.139,7.853c-2.092,1.844-5.122,2.766-9.092,2.766H64.198z
			 M64.198,450.891h9.254c2.961,0,5.218-0.703,6.773-2.111c1.554-1.408,2.333-3.371,2.333-5.89c0-2.501-0.774-4.493-2.32-5.976
			c-1.547-1.482-3.742-2.239-6.587-2.273h-9.452V450.891z"/>
		<path display="inline" fill="#F2F2F2" d="M89.777,454.363c0-2.579,0.5-4.903,1.501-6.971c1-2.067,2.414-3.675,4.242-4.825
			c1.828-1.149,3.898-1.725,6.215-1.725c3.572,0,6.467,1.254,8.684,3.759c2.216,2.506,3.324,5.826,3.324,9.961v0.621
			c0,2.596-0.5,4.933-1.5,7.008c-1.001,2.076-2.411,3.677-4.23,4.801c-1.819,1.125-3.896,1.687-6.227,1.687
			c-3.557,0-6.447-1.252-8.672-3.759c-2.224-2.505-3.336-5.826-3.336-9.961V454.363z M92.754,455.184
			c0,3.208,0.831,5.843,2.494,7.901s3.84,3.089,6.538,3.089c2.679,0,4.85-1.03,6.512-3.089c1.662-2.059,2.493-4.775,2.493-8.149
			v-0.572c0-2.05-0.381-3.927-1.141-5.631c-0.761-1.703-1.828-3.021-3.201-3.957c-1.373-0.935-2.944-1.401-4.714-1.401
			c-2.647,0-4.805,1.037-6.476,3.113c-1.67,2.075-2.505,4.792-2.505,8.15V455.184z"/>
		<path display="inline" fill="#F2F2F2" d="M126.297,462.006l0.446,2.307l0.596-2.431l6.45-20.543h2.53l6.375,20.369l0.695,2.828
			l0.57-2.604l5.508-20.593h3.076l-7.815,26.845h-2.53l-6.896-21.287l-0.323-1.464l-0.323,1.488l-6.773,21.263h-2.53l-7.79-26.845
			h3.052L126.297,462.006z"/>
		<path display="inline" fill="#F2F2F2" d="M168.572,468.679c-2.283,0-4.346-0.562-6.191-1.687
			c-1.844-1.124-3.279-2.691-4.303-4.701c-1.027-2.009-1.539-4.263-1.539-6.761v-1.067c0-2.579,0.5-4.903,1.501-6.971
			c1-2.067,2.394-3.692,4.18-4.875s3.721-1.774,5.805-1.774c3.259,0,5.843,1.112,7.754,3.338c1.91,2.224,2.865,5.263,2.865,9.117
			v1.661h-19.153v0.571c0,3.043,0.872,5.578,2.617,7.604c1.745,2.027,3.94,3.04,6.587,3.04c1.588,0,2.989-0.289,4.205-0.868
			c1.216-0.579,2.32-1.505,3.312-2.779l1.861,1.414C175.891,467.1,172.723,468.679,168.572,468.679z M168.025,443.374
			c-2.233,0-4.114,0.818-5.645,2.456c-1.53,1.637-2.46,3.837-2.791,6.599h16.102v-0.322c-0.083-2.58-0.818-4.68-2.208-6.302
			C172.094,444.185,170.275,443.374,168.025,443.374z"/>
		<path display="inline" fill="#F2F2F2" d="M196.83,443.869c-0.629-0.114-1.299-0.173-2.01-0.173c-1.853,0-3.42,0.517-4.702,1.55
			c-1.282,1.034-2.196,2.535-2.741,4.503v18.435h-2.953v-26.845h2.903l0.05,4.268c1.57-3.175,4.093-4.764,7.566-4.764
			c0.827,0,1.479,0.107,1.96,0.323L196.83,443.869z"/>
		<path display="inline" fill="#F2F2F2" d="M211.443,468.679c-2.283,0-4.346-0.562-6.19-1.687c-1.844-1.124-3.279-2.691-4.304-4.701
			c-1.027-2.009-1.539-4.263-1.539-6.761v-1.067c0-2.579,0.5-4.903,1.502-6.971c1-2.067,2.394-3.692,4.18-4.875
			c1.786-1.183,3.721-1.774,5.805-1.774c3.258,0,5.842,1.112,7.753,3.338c1.91,2.224,2.866,5.263,2.866,9.117v1.661h-19.153v0.571
			c0,3.043,0.873,5.578,2.617,7.604c1.745,2.027,3.94,3.04,6.587,3.04c1.588,0,2.989-0.289,4.205-0.868
			c1.216-0.579,2.32-1.505,3.312-2.779l1.861,1.414C218.762,467.1,215.595,468.679,211.443,468.679z M210.897,443.374
			c-2.233,0-4.114,0.818-5.645,2.456c-1.53,1.637-2.46,3.837-2.791,6.599h16.102v-0.322c-0.083-2.58-0.819-4.68-2.208-6.302
			C214.965,444.185,213.146,443.374,210.897,443.374z"/>
		<path display="inline" fill="#F2F2F2" d="M226.105,454.513c0-4.168,0.93-7.487,2.791-9.96c1.86-2.473,4.387-3.71,7.578-3.71
			c3.623,0,6.386,1.431,8.288,4.292v-15.059h2.95v38.107h-2.777l-0.125-3.573c-1.902,2.713-4.697,4.068-8.386,4.068
			c-3.092,0-5.586-1.244-7.479-3.733c-1.894-2.488-2.84-5.852-2.84-10.085V454.513z M229.106,455.033
			c0,3.425,0.687,6.125,2.06,8.101c1.373,1.978,3.308,2.966,5.805,2.966c3.655,0,6.252-1.612,7.791-4.838v-12.604
			c-1.539-3.489-4.12-5.235-7.74-5.235c-2.499,0-4.442,0.98-5.831,2.94C229.802,448.323,229.106,451.214,229.106,455.033z"/>
		<path display="inline" fill="#F2F2F2" d="M268.579,468.184v-36.123h10.669c3.87,0,6.806,0.798,8.807,2.396
			c2.001,1.597,3.002,3.951,3.002,7.062c0,1.87-0.509,3.497-1.526,4.878c-1.017,1.383-2.411,2.371-4.18,2.967
			c2.101,0.463,3.792,1.496,5.073,3.1s1.923,3.455,1.923,5.555c0,3.19-1.029,5.683-3.089,7.476c-2.06,1.794-4.925,2.69-8.596,2.69
			H268.579z M271.631,448.261h8.336c2.547-0.05,4.52-0.65,5.917-1.802s2.096-2.829,2.096-5.032c0-2.32-0.724-4.031-2.17-5.134
			c-1.448-1.101-3.635-1.652-6.562-1.652h-7.617V448.261z M271.631,450.842v14.762h9.154c2.613,0,4.685-0.664,6.215-1.994
			c1.53-1.329,2.295-3.174,2.295-5.535c0-2.229-0.731-3.992-2.195-5.289c-1.464-1.296-3.486-1.943-6.065-1.943H271.631z"/>
		<path display="inline" fill="#F2F2F2" d="M307.53,463.916l7.84-22.577h3.2l-11.463,31.409l-0.595,1.39
			c-1.473,3.258-3.746,4.887-6.822,4.887c-0.712,0-1.473-0.115-2.282-0.347l-0.025-2.456l1.538,0.148
			c1.455,0,2.634-0.36,3.535-1.079s1.667-1.956,2.295-3.709l1.314-3.622l-10.122-26.621h3.251L307.53,463.916z"/>
		<path display="inline" fill="#F2F2F2" d="M356.652,459.301c0-2-0.703-3.584-2.108-4.751c-1.406-1.166-3.979-2.273-7.716-3.324
			c-3.738-1.05-6.467-2.195-8.188-3.436c-2.448-1.753-3.672-4.052-3.672-6.897c0-2.762,1.137-5.008,3.411-6.736
			c2.274-1.728,5.182-2.592,8.722-2.592c2.396,0,4.543,0.463,6.438,1.39c1.894,0.926,3.361,2.216,4.403,3.87
			c1.042,1.653,1.563,3.498,1.563,5.532h-3.077c0-2.472-0.843-4.459-2.53-5.959c-1.687-1.502-3.953-2.253-6.797-2.253
			c-2.763,0-4.963,0.617-6.6,1.851c-1.638,1.235-2.456,2.846-2.456,4.834c0,1.839,0.735,3.338,2.207,4.497
			c1.473,1.16,3.83,2.184,7.072,3.069c3.24,0.887,5.696,1.805,7.368,2.756c1.67,0.951,2.927,2.088,3.771,3.411
			c0.844,1.324,1.265,2.887,1.265,4.689c0,2.845-1.137,5.128-3.411,6.848c-2.274,1.721-5.271,2.579-8.992,2.579
			c-2.549,0-4.884-0.454-7.01-1.363c-2.126-0.91-3.737-2.184-4.838-3.821c-1.1-1.638-1.649-3.515-1.649-5.631h3.052
			c0,2.547,0.951,4.557,2.853,6.028c1.902,1.472,4.433,2.208,7.593,2.208c2.811,0,5.068-0.621,6.772-1.861
			C355.801,462.998,356.652,461.353,356.652,459.301z"/>
		<path display="inline" fill="#F2F2F2" d="M375.533,466.174c2.067,0,3.799-0.584,5.197-1.749c1.396-1.166,2.154-2.675,2.271-4.528
			h2.853c-0.082,1.638-0.596,3.131-1.538,4.479s-2.195,2.402-3.759,3.163c-1.562,0.761-3.237,1.141-5.023,1.141
			c-3.523,0-6.314-1.224-8.373-3.671c-2.061-2.448-3.089-5.739-3.089-9.875v-0.893c0-2.646,0.463-4.986,1.389-7.021
			c0.926-2.033,2.254-3.605,3.981-4.713c1.729-1.109,3.75-1.663,6.066-1.663c2.944,0,5.372,0.877,7.281,2.631
			c1.91,1.753,2.932,4.061,3.064,6.921h-2.853c-0.134-2.1-0.89-3.795-2.271-5.086c-1.381-1.29-3.122-1.935-5.223-1.935
			c-2.68,0-4.759,0.967-6.24,2.902c-1.479,1.935-2.22,4.648-2.22,8.138v0.868c0,3.424,0.74,6.095,2.22,8.014
			C370.749,465.215,372.837,466.174,375.533,466.174z"/>
		<path display="inline" fill="#F2F2F2" d="M408.729,468.184c-0.298-0.845-0.488-2.092-0.571-3.747
			c-1.042,1.357-2.368,2.402-3.981,3.14c-1.612,0.735-3.321,1.103-5.124,1.103c-2.58,0-4.668-0.719-6.264-2.158
			c-1.596-1.438-2.394-3.259-2.394-5.457c0-2.614,1.087-4.682,3.262-6.203s5.206-2.283,9.093-2.283h5.384v-3.051
			c0-1.918-0.592-3.428-1.773-4.527c-1.184-1.1-2.907-1.65-5.173-1.65c-2.067,0-3.779,0.529-5.136,1.588s-2.035,2.333-2.035,3.821
			l-2.977-0.025c0-2.133,0.992-3.981,2.977-5.545c1.984-1.562,4.425-2.345,7.319-2.345c2.994,0,5.354,0.749,7.083,2.245
			c1.729,1.497,2.618,3.586,2.667,6.266v12.701c0,2.598,0.272,4.54,0.819,5.831v0.298H408.729z M399.4,466.05
			c1.984,0,3.758-0.479,5.321-1.439c1.562-0.958,2.7-2.241,3.411-3.845v-5.905h-5.31c-2.96,0.033-5.276,0.575-6.946,1.626
			c-1.671,1.049-2.506,2.493-2.506,4.328c0,1.506,0.559,2.754,1.675,3.747C396.162,465.553,397.613,466.05,399.4,466.05z"/>
		<path display="inline" fill="#F2F2F2" d="M422.322,468.184h-2.977v-38.107h2.977V468.184z"/>
		<path display="inline" fill="#F2F2F2" d="M440.781,468.679c-2.283,0-4.346-0.562-6.19-1.687c-1.844-1.124-3.279-2.691-4.305-4.701
			c-1.025-2.009-1.538-4.263-1.538-6.761v-1.067c0-2.579,0.501-4.903,1.501-6.971c1.001-2.067,2.395-3.692,4.182-4.875
			c1.786-1.183,3.721-1.774,5.805-1.774c3.259,0,5.843,1.112,7.753,3.338c1.911,2.224,2.865,5.263,2.865,9.117v1.661H431.7v0.571
			c0,3.043,0.873,5.578,2.618,7.604c1.745,2.027,3.94,3.04,6.587,3.04c1.588,0,2.989-0.289,4.205-0.868s2.319-1.505,3.312-2.779
			l1.86,1.414C448.1,467.1,444.932,468.679,440.781,468.679z M440.235,443.374c-2.232,0-4.114,0.818-5.645,2.456
			c-1.53,1.637-2.46,3.837-2.791,6.599h16.102v-0.322c-0.083-2.58-0.818-4.68-2.207-6.302
			C444.304,444.185,442.484,443.374,440.235,443.374z"/>
	</g>
	<g>
		<linearGradient id="SVGID_1_" gradientUnits="userSpaceOnUse" x1="214.4219" y1="79.8213" x2="214.4219" y2="166.499">
			<stop  offset="0" style="stop-color:#3681BF"/>
			<stop  offset="1" style="stop-color:#48ACFF"/>
		</linearGradient>
		<polygon fill="url(#SVGID_1_)" stroke="#000000" stroke-width="2" stroke-miterlimit="10" points="177.459,166.499 
			251.385,123.154 177.459,79.821 		"/>
		<linearGradient id="SVGID_2_" gradientUnits="userSpaceOnUse" x1="137.0503" y1="174.7744" x2="137.0503" y2="258.4253">
			<stop  offset="0" style="stop-color:#3681BF"/>
			<stop  offset="1" style="stop-color:#48ACFF"/>
		</linearGradient>
		<polygon fill="url(#SVGID_2_)" stroke="#000000" stroke-width="2" stroke-miterlimit="10" points="172.722,258.425 
			172.722,174.774 101.378,216.605 		"/>
		<linearGradient id="SVGID_3_" gradientUnits="userSpaceOnUse" x1="214.4219" y1="173.2568" x2="214.4219" y2="259.939">
			<stop  offset="0" style="stop-color:#3681BF"/>
			<stop  offset="1" style="stop-color:#48ACFF"/>
		</linearGradient>
		<polygon fill="url(#SVGID_3_)" stroke="#000000" stroke-width="2" stroke-miterlimit="10" points="251.385,216.605 
			177.459,173.257 177.459,259.938 		"/>
		<linearGradient id="SVGID_4_" gradientUnits="userSpaceOnUse" x1="214.4219" y1="266.7148" x2="214.4219" y2="353.1172">
			<stop  offset="0" style="stop-color:#3681BF"/>
			<stop  offset="1" style="stop-color:#48ACFF"/>
		</linearGradient>
		<polygon fill="url(#SVGID_4_)" stroke="#000000" stroke-width="2" stroke-miterlimit="10" points="177.459,266.715 
			177.459,352.855 177.917,353.117 251.385,310.045 		"/>
		<linearGradient id="SVGID_5_" gradientUnits="userSpaceOnUse" x1="217.9595" y1="314.4023" x2="217.9595" y2="397.9199">
			<stop  offset="0" style="stop-color:#3681BF"/>
			<stop  offset="1" style="stop-color:#48ACFF"/>
		</linearGradient>
		<polygon fill="url(#SVGID_5_)" stroke="#000000" stroke-width="2" stroke-miterlimit="10" points="253.332,314.402 
			182.587,355.883 253.332,397.92 		"/>
		<linearGradient id="SVGID_6_" gradientUnits="userSpaceOnUse" x1="138.0698" y1="268.2168" x2="138.0698" y2="350.0234">
			<stop  offset="0" style="stop-color:#3681BF"/>
			<stop  offset="1" style="stop-color:#48ACFF"/>
		</linearGradient>
		<polygon fill="url(#SVGID_6_)" stroke="#000000" stroke-width="2" stroke-miterlimit="10" points="172.722,268.217 
			103.417,308.859 172.722,350.023 		"/>
		<linearGradient id="SVGID_7_" gradientUnits="userSpaceOnUse" x1="135.457" y1="127.3848" x2="135.457" y2="212.375">
			<stop  offset="0" style="stop-color:#3681BF"/>
			<stop  offset="1" style="stop-color:#48ACFF"/>
		</linearGradient>
		<polygon fill="url(#SVGID_7_)" stroke="#000000" stroke-width="2" stroke-miterlimit="10" points="171.69,169.878 99.224,127.385 
			99.224,212.375 		"/>
		<linearGradient id="SVGID_8_" gradientUnits="userSpaceOnUse" x1="217.4409" y1="34.0801" x2="217.4409" y2="118.8018">
			<stop  offset="0" style="stop-color:#3681BF"/>
			<stop  offset="1" style="stop-color:#48ACFF"/>
		</linearGradient>
		<polygon fill="url(#SVGID_8_)" stroke="#000000" stroke-width="2" stroke-miterlimit="10" points="253.332,118.802 253.332,34.08 
			181.549,76.727 		"/>
		<linearGradient id="SVGID_9_" gradientUnits="userSpaceOnUse" x1="137.5601" y1="81.9736" x2="137.5601" y2="164.9854">
			<stop  offset="0" style="stop-color:#3681BF"/>
			<stop  offset="1" style="stop-color:#48ACFF"/>
		</linearGradient>
		<polygon fill="url(#SVGID_9_)" stroke="#000000" stroke-width="2" stroke-miterlimit="10" points="172.722,164.985 
			172.722,81.974 102.398,123.753 		"/>
		
			<linearGradient id="SVGID_10_" gradientUnits="userSpaceOnUse" x1="-53.5786" y1="79.8218" x2="-53.5786" y2="166.4995" gradientTransform="matrix(-1 0 0 1 244 0)">
			<stop  offset="0" style="stop-color:#3681BF"/>
			<stop  offset="1" style="stop-color:#48ACFF"/>
		</linearGradient>
		<polygon fill="url(#SVGID_10_)" stroke="#000000" stroke-width="2" stroke-miterlimit="10" points="334.541,166.499 
			260.615,123.154 334.541,79.821 		"/>
		
			<linearGradient id="SVGID_11_" gradientUnits="userSpaceOnUse" x1="-130.9497" y1="174.7749" x2="-130.9497" y2="258.4243" gradientTransform="matrix(-1 0 0 1 244 0)">
			<stop  offset="0" style="stop-color:#3681BF"/>
			<stop  offset="1" style="stop-color:#48ACFF"/>
		</linearGradient>
		<polygon fill="url(#SVGID_11_)" stroke="#000000" stroke-width="2" stroke-miterlimit="10" points="339.277,258.425 
			339.277,174.774 410.621,216.605 		"/>
		
			<linearGradient id="SVGID_12_" gradientUnits="userSpaceOnUse" x1="-53.5786" y1="173.2573" x2="-53.5786" y2="259.938" gradientTransform="matrix(-1 0 0 1 244 0)">
			<stop  offset="0" style="stop-color:#3681BF"/>
			<stop  offset="1" style="stop-color:#48ACFF"/>
		</linearGradient>
		<polygon fill="url(#SVGID_12_)" stroke="#000000" stroke-width="2" stroke-miterlimit="10" points="260.615,216.605 
			334.541,173.257 334.541,259.938 		"/>
		
			<linearGradient id="SVGID_13_" gradientUnits="userSpaceOnUse" x1="-53.5786" y1="266.7139" x2="-53.5786" y2="353.1162" gradientTransform="matrix(-1 0 0 1 244 0)">
			<stop  offset="0" style="stop-color:#3681BF"/>
			<stop  offset="1" style="stop-color:#48ACFF"/>
		</linearGradient>
		<polygon fill="url(#SVGID_13_)" stroke="#000000" stroke-width="2" stroke-miterlimit="10" points="334.541,266.715 
			334.541,352.855 334.082,353.117 260.615,310.045 		"/>
		
			<linearGradient id="SVGID_14_" gradientUnits="userSpaceOnUse" x1="-50.0503" y1="314.4014" x2="-50.0503" y2="397.9189" gradientTransform="matrix(-1 0 0 1 244 0)">
			<stop  offset="0" style="stop-color:#3681BF"/>
			<stop  offset="1" style="stop-color:#48ACFF"/>
		</linearGradient>
		<polygon fill="url(#SVGID_14_)" stroke="#000000" stroke-width="2" stroke-miterlimit="10" points="258.668,314.402 
			329.432,355.883 258.668,397.92 		"/>
		
			<linearGradient id="SVGID_15_" gradientUnits="userSpaceOnUse" x1="-129.9302" y1="268.2158" x2="-129.9302" y2="350.0225" gradientTransform="matrix(-1 0 0 1 244 0)">
			<stop  offset="0" style="stop-color:#3681BF"/>
			<stop  offset="1" style="stop-color:#48ACFF"/>
		</linearGradient>
		<polygon fill="url(#SVGID_15_)" stroke="#000000" stroke-width="2" stroke-miterlimit="10" points="339.277,268.217 
			408.582,308.859 339.277,350.023 		"/>
		<linearGradient id="SVGID_16_" gradientUnits="userSpaceOnUse" x1="340.3105" y1="263.3271" x2="412.7773" y2="263.3271">
			<stop  offset="0" style="stop-color:#3681BF"/>
			<stop  offset="1" style="stop-color:#48ACFF"/>
		</linearGradient>
		<polygon fill="url(#SVGID_16_)" stroke="#000000" stroke-width="2" stroke-miterlimit="10" points="412.777,220.84 
			412.777,305.814 340.311,263.32 		"/>
		
			<linearGradient id="SVGID_17_" gradientUnits="userSpaceOnUse" x1="-50.5601" y1="34.0806" x2="-50.5601" y2="118.8022" gradientTransform="matrix(-1 0 0 1 244 0)">
			<stop  offset="0" style="stop-color:#3681BF"/>
			<stop  offset="1" style="stop-color:#48ACFF"/>
		</linearGradient>
		<polygon fill="url(#SVGID_17_)" stroke="#000000" stroke-width="2" stroke-miterlimit="10" points="258.668,118.802 
			258.668,34.08 330.451,76.727 		"/>
		
			<linearGradient id="SVGID_18_" gradientUnits="userSpaceOnUse" x1="-130.4468" y1="81.9741" x2="-130.4468" y2="164.9858" gradientTransform="matrix(-1 0 0 1 244 0)">
			<stop  offset="0" style="stop-color:#3681BF"/>
			<stop  offset="1" style="stop-color:#48ACFF"/>
		</linearGradient>
		<polygon fill="url(#SVGID_18_)" stroke="#000000" stroke-width="2" stroke-miterlimit="10" points="339.277,164.985 
			339.277,81.974 409.615,123.753 		"/>
	</g>
	<g>
		<path fill="#FFFFFF" d="M72.217,459.932v12.023h-7.031V437.83h13.312c2.562,0,4.816,0.469,6.762,1.406s3.441,2.27,4.488,3.996
			s1.57,3.691,1.57,5.895c0,3.344-1.145,5.98-3.434,7.91s-5.457,2.895-9.504,2.895H72.217z M72.217,454.236h6.281
			c1.859,0,3.277-0.438,4.254-1.312s1.465-2.125,1.465-3.75c0-1.672-0.492-3.023-1.477-4.055s-2.344-1.562-4.078-1.594h-6.445
			V454.236z"/>
		<path fill="#FFFFFF" d="M94.342,459.041c0-2.516,0.484-4.758,1.453-6.727s2.363-3.492,4.184-4.57s3.934-1.617,6.34-1.617
			c3.422,0,6.215,1.047,8.379,3.141s3.371,4.938,3.621,8.531l0.047,1.734c0,3.891-1.086,7.012-3.258,9.363s-5.086,3.527-8.742,3.527
			s-6.574-1.172-8.754-3.516s-3.27-5.531-3.27-9.562V459.041z M101.115,459.521c0,2.41,0.453,4.253,1.359,5.528
			s2.203,1.913,3.891,1.913c1.641,0,2.922-0.63,3.844-1.89s1.383-3.274,1.383-6.044c0-2.363-0.461-4.194-1.383-5.493
			s-2.219-1.948-3.891-1.948c-1.656,0-2.938,0.646-3.844,1.937S101.115,456.814,101.115,459.521z"/>
		<path fill="#FFFFFF" d="M144.592,462.744l3.328-16.148h6.539l-6.469,25.359h-5.672l-4.805-15.961l-4.805,15.961h-5.648
			l-6.469-25.359h6.539l3.305,16.125l4.641-16.125h4.898L144.592,462.744z"/>
		<path fill="#FFFFFF" d="M169.482,472.424c-3.719,0-6.746-1.141-9.082-3.422s-3.504-5.32-3.504-9.117v-0.656
			c0-2.547,0.492-4.824,1.477-6.832s2.379-3.555,4.184-4.641s3.863-1.629,6.176-1.629c3.469,0,6.199,1.094,8.191,3.281
			s2.988,5.289,2.988,9.305v2.766h-16.148c0.219,1.656,0.879,2.984,1.98,3.984s2.496,1.5,4.184,1.5c2.609,0,4.648-0.945,6.117-2.836
			l3.328,3.727c-1.016,1.438-2.391,2.559-4.125,3.363S171.592,472.424,169.482,472.424z M168.709,451.588
			c-1.344,0-2.434,0.455-3.27,1.365c-0.836,0.911-1.371,2.213-1.605,3.908h9.422v-0.542c-0.031-1.506-0.438-2.672-1.219-3.495
			C171.256,452,170.146,451.588,168.709,451.588z"/>
		<path fill="#FFFFFF" d="M198.006,452.947c-0.922-0.125-1.734-0.188-2.438-0.188c-2.562,0-4.242,0.867-5.039,2.602v16.594h-6.773
			v-25.359h6.398l0.188,3.023c1.359-2.328,3.242-3.492,5.648-3.492c0.75,0,1.453,0.102,2.109,0.305L198.006,452.947z"/>
		<path fill="#FFFFFF" d="M212.49,472.424c-3.719,0-6.746-1.141-9.082-3.422s-3.504-5.32-3.504-9.117v-0.656
			c0-2.547,0.492-4.824,1.477-6.832s2.379-3.555,4.184-4.641s3.863-1.629,6.176-1.629c3.469,0,6.199,1.094,8.191,3.281
			s2.988,5.289,2.988,9.305v2.766h-16.148c0.219,1.656,0.879,2.984,1.98,3.984s2.496,1.5,4.184,1.5c2.609,0,4.648-0.945,6.117-2.836
			l3.328,3.727c-1.016,1.438-2.391,2.559-4.125,3.363S214.6,472.424,212.49,472.424z M211.717,451.588
			c-1.344,0-2.434,0.455-3.27,1.365c-0.836,0.911-1.371,2.213-1.605,3.908h9.422v-0.542c-0.031-1.506-0.438-2.672-1.219-3.495
			C214.264,452,213.154,451.588,211.717,451.588z"/>
		<path fill="#FFFFFF" d="M225.709,459.088c0-3.953,0.887-7.102,2.66-9.445s4.199-3.516,7.277-3.516
			c2.469,0,4.508,0.922,6.117,2.766v-12.938h6.797v36h-6.117l-0.328-2.695c-1.688,2.109-3.859,3.164-6.516,3.164
			c-2.984,0-5.379-1.176-7.184-3.527S225.709,463.275,225.709,459.088z M232.482,459.57c0,2.386,0.414,4.214,1.242,5.485
			s2.031,1.907,3.609,1.907c2.094,0,3.57-0.887,4.43-2.66v-10.055c-0.844-1.773-2.305-2.66-4.383-2.66
			C234.115,451.588,232.482,454.249,232.482,459.57z"/>
		<path fill="#FFFFFF" d="M266.209,471.955V437.83h11.953c4.141,0,7.281,0.793,9.422,2.379s3.211,3.91,3.211,6.973
			c0,1.672-0.43,3.145-1.289,4.418s-2.055,2.207-3.586,2.801c1.75,0.438,3.129,1.32,4.137,2.648s1.512,2.953,1.512,4.875
			c0,3.281-1.047,5.766-3.141,7.453s-5.078,2.547-8.953,2.578H266.209z M273.24,452.127h5.203c3.547-0.062,5.32-1.477,5.32-4.242
			c0-1.547-0.449-2.66-1.348-3.34s-2.316-1.02-4.254-1.02h-4.922V452.127z M273.24,457.096v9.211h6.023
			c1.656,0,2.949-0.395,3.879-1.184s1.395-1.879,1.395-3.27c0-3.125-1.617-4.711-4.852-4.758H273.24z"/>
		<path fill="#FFFFFF" d="M305.865,462.369l4.688-15.773h7.266l-10.195,29.297l-0.562,1.336c-1.516,3.312-4.016,4.969-7.5,4.969
			c-0.984,0-1.984-0.148-3-0.445v-5.133l1.031,0.023c1.281,0,2.238-0.195,2.871-0.586s1.129-1.039,1.488-1.945l0.797-2.086
			l-8.883-25.43h7.289L305.865,462.369z"/>
		<path fill="#FFFFFF" d="M351.658,463.002c0-1.328-0.469-2.348-1.406-3.059s-2.625-1.461-5.062-2.25s-4.367-1.566-5.789-2.332
			c-3.875-2.094-5.812-4.914-5.812-8.461c0-1.844,0.52-3.488,1.559-4.934s2.531-2.574,4.477-3.387s4.129-1.219,6.551-1.219
			c2.438,0,4.609,0.441,6.516,1.324s3.387,2.129,4.441,3.738s1.582,3.438,1.582,5.484h-7.031c0-1.562-0.492-2.777-1.477-3.645
			s-2.367-1.301-4.148-1.301c-1.719,0-3.055,0.363-4.008,1.09s-1.43,1.684-1.43,2.871c0,1.109,0.559,2.039,1.676,2.789
			s2.762,1.453,4.934,2.109c4,1.203,6.914,2.695,8.742,4.477s2.742,4,2.742,6.656c0,2.953-1.117,5.27-3.352,6.949
			s-5.242,2.52-9.023,2.52c-2.625,0-5.016-0.48-7.172-1.441s-3.801-2.277-4.934-3.949s-1.699-3.609-1.699-5.812h7.055
			c0,3.766,2.25,5.648,6.75,5.648c1.672,0,2.977-0.34,3.914-1.02S351.658,464.221,351.658,463.002z"/>
		<path fill="#FFFFFF" d="M373.572,466.963c1.25,0,2.266-0.344,3.047-1.031s1.188-1.602,1.219-2.742h6.352
			c-0.016,1.719-0.484,3.293-1.406,4.723s-2.184,2.539-3.785,3.328s-3.371,1.184-5.309,1.184c-3.625,0-6.484-1.152-8.578-3.457
			s-3.141-5.488-3.141-9.551v-0.445c0-3.906,1.039-7.023,3.117-9.352s4.93-3.492,8.555-3.492c3.172,0,5.715,0.902,7.629,2.707
			s2.887,4.207,2.918,7.207h-6.352c-0.031-1.319-0.438-2.392-1.219-3.216c-0.781-0.825-1.812-1.237-3.094-1.237
			c-1.578,0-2.77,0.575-3.574,1.726c-0.805,1.149-1.207,3.017-1.207,5.598v0.704c0,2.614,0.398,4.492,1.195,5.634
			C370.736,466.392,371.947,466.963,373.572,466.963z"/>
		<path fill="#FFFFFF" d="M402.752,471.955c-0.312-0.609-0.539-1.367-0.68-2.273c-1.641,1.828-3.773,2.742-6.398,2.742
			c-2.484,0-4.543-0.719-6.176-2.156s-2.449-3.25-2.449-5.438c0-2.688,0.996-4.75,2.988-6.188s4.871-2.164,8.637-2.18h3.117v-1.453
			c0-1.172-0.301-2.109-0.902-2.812s-1.551-1.055-2.848-1.055c-1.141,0-2.035,0.273-2.684,0.82s-0.973,1.297-0.973,2.25h-6.773
			c0-1.469,0.453-2.828,1.359-4.078s2.188-2.23,3.844-2.941s3.516-1.066,5.578-1.066c3.125,0,5.605,0.785,7.441,2.355
			s2.754,3.777,2.754,6.621v10.992c0.016,2.406,0.352,4.227,1.008,5.461v0.398H402.752z M397.15,467.244
			c1,0,1.922-0.223,2.766-0.668s1.469-1.043,1.875-1.793v-4.359h-2.531c-3.391,0-5.195,1.172-5.414,3.516l-0.023,0.398
			c0,0.844,0.297,1.539,0.891,2.086S396.119,467.244,397.15,467.244z"/>
		<path fill="#FFFFFF" d="M420.939,471.955h-6.797v-36h6.797V471.955z"/>
		<path fill="#FFFFFF" d="M438.189,472.424c-3.719,0-6.746-1.141-9.082-3.422s-3.504-5.32-3.504-9.117v-0.656
			c0-2.547,0.492-4.824,1.477-6.832s2.379-3.555,4.184-4.641s3.863-1.629,6.176-1.629c3.469,0,6.199,1.094,8.191,3.281
			s2.988,5.289,2.988,9.305v2.766h-16.148c0.219,1.656,0.879,2.984,1.98,3.984s2.496,1.5,4.184,1.5c2.609,0,4.648-0.945,6.117-2.836
			l3.328,3.727c-1.016,1.438-2.391,2.559-4.125,3.363S440.299,472.424,438.189,472.424z M437.416,451.588
			c-1.344,0-2.434,0.455-3.27,1.365c-0.836,0.911-1.371,2.213-1.605,3.908h9.422v-0.542c-0.031-1.506-0.438-2.672-1.219-3.495
			C439.963,452,438.854,451.588,437.416,451.588z"/>
	</g>
	<g>
	</g>
	<g>
	</g>
	<g>
	</g>
	<g>
	</g>
	<g>
	</g>
	<g>
	</g>
	<g>
	</g>
	<g>
	</g>
	<g>
	</g>
	<g>
	</g>
	<g>
	</g>
	<g>
	</g>
	<g>
	</g>
	<g>
	</g>
	<g>
	</g>
</g>
</svg>
