<?xml version="1.0" standalone="no"?>
<!DOCTYPE svg PUBLIC "-//W3C//DTD SVG 20010904//EN"
 "http://www.w3.org/TR/2001/REC-SVG-20010904/DTD/svg10.dtd">
<svg version="1.0" xmlns="http://www.w3.org/2000/svg"
 width="16.000000pt" height="16.000000pt" viewBox="0 0 16.000000 16.000000"
 preserveAspectRatio="xMidYMid meet">
<metadata>
Created by potrace 1.11, written by Peter Selinger 2001-2013
</metadata>
<g transform="translate(0.000000,16.000000) scale(0.002286,-0.002286)"
fill="#000000" stroke="none">
<path d="M3014 6683 c-236 -140 -440 -261 -454 -269 -14 -8 -38 -23 -55 -33
-39 -24 -352 -210 -387 -230 -16 -9 -28 -19 -28 -22 0 -5 359 -219 540 -321
19 -11 98 -57 175 -103 519 -306 639 -375 644 -369 8 8 9 1594 1 1599 -3 2
-199 -111 -436 -252z"/>
<path d="M3544 6135 c0 -443 2 -805 4 -805 4 0 126 68 162 90 8 5 49 29 90 53
41 24 129 76 195 114 66 39 134 79 152 89 18 11 89 53 160 94 70 41 150 88
178 103 27 16 55 32 60 37 6 4 30 19 55 32 117 65 310 182 310 187 0 4 -35 27
-77 52 -190 112 -368 217 -638 378 -159 96 -303 181 -320 191 -16 9 -91 54
-167 99 -75 44 -142 83 -150 86 -12 5 -14 -115 -14 -800z"/>
<path d="M2010 5255 c0 -751 1 -827 16 -821 15 6 334 192 654 381 85 51 175
103 200 117 105 59 468 273 503 296 34 23 36 26 20 37 -19 12 -283 168 -343
202 -19 11 -81 48 -138 82 -56 33 -105 61 -108 61 -3 0 -18 8 -32 19 -23 16
-609 360 -729 429 l-43 24 0 -827z"/>
<path d="M4855 6004 c-71 -42 -146 -86 -165 -97 -19 -10 -136 -79 -260 -152
-124 -73 -239 -141 -257 -151 -216 -127 -310 -182 -332 -194 -209 -121 -260
-155 -249 -166 11 -9 360 -216 518 -306 19 -11 177 -104 350 -206 443 -260
521 -305 526 -300 2 3 3 375 2 827 l-3 821 -130 -76z"/>
<path d="M1905 6026 c-11 -6 -22 -14 -25 -17 -3 -3 -12 -8 -20 -12 -54 -23
-1255 -747 -1255 -757 0 -7 18 -22 40 -34 22 -12 51 -29 65 -37 33 -21 671
-395 730 -427 25 -14 69 -40 98 -59 29 -18 55 -33 58 -33 3 0 25 -13 49 -30
24 -16 46 -30 48 -30 3 0 54 -29 115 -65 60 -36 114 -65 118 -65 9 0 13 1565
4 1573 -3 3 -14 0 -25 -7z"/>
<path d="M5065 5248 c0 -548 3 -782 11 -785 6 -2 27 8 48 22 20 14 39 25 41
25 2 0 39 21 82 47 112 67 462 272 503 295 19 11 60 35 90 53 91 55 400 235
483 282 42 24 77 48 77 54 0 5 -24 23 -52 39 -29 17 -60 35 -68 40 -26 16
-154 92 -185 110 -16 10 -183 109 -370 220 -187 112 -401 239 -475 282 -74 44
-139 84 -144 89 -6 5 -17 9 -26 9 -13 0 -15 -82 -15 -782z"/>
<path d="M539 5178 c-5 -10 -4 -1610 0 -1613 4 -2 42 18 86 45 44 26 202 118
350 205 149 87 317 186 375 220 58 33 159 93 225 132 289 169 335 197 335 204
0 4 -75 51 -167 105 -93 54 -226 133 -298 175 -354 208 -408 239 -416 239 -5
0 -9 5 -9 10 0 6 -4 10 -9 10 -5 0 -67 34 -136 75 -70 41 -129 75 -131 75 -2
0 -27 15 -56 33 -74 47 -148 88 -149 85z"/>
<path d="M2010 3490 c0 -563 3 -820 10 -820 6 0 93 48 193 107 100 59 195 114
210 122 33 18 52 30 87 52 14 9 216 128 450 264 234 137 433 254 444 261 22
15 26 12 -239 166 -99 58 -281 165 -405 238 -124 73 -239 141 -256 150 -17 10
-110 64 -205 121 -96 56 -190 111 -209 121 -19 11 -39 24 -44 29 -36 34 -36
30 -36 -811z"/>
<path d="M4750 4180 c-118 -71 -237 -141 -264 -155 -27 -15 -61 -35 -75 -45
-23 -15 -485 -287 -536 -314 -63 -35 -286 -169 -290 -175 -2 -5 44 -36 103
-70 59 -34 114 -66 122 -72 21 -13 268 -157 310 -182 94 -53 469 -273 500
-292 79 -50 350 -205 360 -205 7 0 10 261 10 820 0 650 -3 820 -12 819 -7 -1
-110 -59 -228 -129z"/>
<path d="M1760 4189 c-85 -51 -215 -127 -288 -170 -73 -44 -136 -79 -139 -79
-2 0 -28 -15 -56 -33 -29 -19 -101 -62 -162 -97 -60 -35 -177 -104 -258 -152
-82 -48 -150 -88 -152 -88 -2 0 -34 -19 -70 -41 l-66 -42 73 -43 c40 -23 212
-124 383 -224 171 -100 330 -194 355 -208 25 -14 104 -60 175 -102 306 -182
370 -218 375 -210 10 16 5 1573 -5 1577 -5 1 -80 -38 -165 -88z"/>
<path d="M5065 3491 c0 -434 2 -792 5 -794 3 -3 70 34 150 81 80 47 208 122
285 167 77 45 235 137 350 205 116 67 235 137 265 155 30 18 110 65 178 105
67 39 122 75 122 79 0 5 -102 68 -227 141 -126 73 -277 162 -338 198 -60 35
-130 76 -155 90 -25 14 -88 51 -140 82 -238 142 -477 280 -486 280 -5 0 -9
-311 -9 -789z"/>
<path d="M6325 3339 c-66 -39 -163 -96 -215 -127 -52 -30 -106 -62 -120 -71
-14 -8 -45 -26 -70 -39 -25 -14 -52 -31 -61 -38 -8 -8 -18 -14 -21 -14 -3 0
-106 -59 -229 -132 -123 -72 -290 -170 -371 -217 -81 -47 -146 -90 -145 -95 3
-8 242 -156 252 -156 2 0 51 -29 110 -65 59 -36 109 -65 111 -65 3 0 23 -11
45 -26 22 -14 55 -33 72 -43 18 -10 187 -109 377 -221 326 -191 394 -230 403
-230 1 0 3 362 3 805 0 558 -3 805 -10 805 -6 0 -65 -32 -131 -71z"/>
<path d="M2010 1730 c0 -677 2 -820 13 -820 13 0 136 71 837 482 507 298 555
326 554 334 -2 6 -167 106 -329 199 -22 12 -227 133 -455 267 -228 134 -424
249 -435 255 -11 7 -54 32 -96 57 -42 25 -79 46 -82 46 -4 0 -7 -369 -7 -820z"/>
<path d="M4945 2530 c-16 -10 -145 -85 -285 -167 -140 -83 -318 -187 -395
-233 -77 -45 -159 -93 -182 -106 -197 -112 -492 -291 -493 -299 0 -5 151 -99
337 -208 341 -200 415 -243 488 -286 373 -220 549 -321 561 -321 12 0 14 122
14 820 0 451 -3 820 -7 819 -5 0 -21 -9 -38 -19z"/>
<path d="M1769 2429 c-84 -50 -178 -104 -207 -120 -28 -16 -70 -40 -93 -54
-22 -15 -55 -34 -72 -44 -48 -27 -183 -107 -352 -206 -82 -49 -159 -93 -170
-99 -11 -6 -76 -45 -144 -85 l-124 -74 39 -24 c21 -13 104 -62 184 -109 80
-47 192 -114 250 -148 58 -35 155 -92 215 -128 61 -36 222 -131 359 -213 136
-81 255 -149 265 -152 15 -4 16 55 16 771 0 427 -2 776 -6 776 -3 0 -75 -41
-160 -91z"/>
<path d="M5066 1757 c1 -419 2 -770 3 -779 1 -17 3 -17 31 0 16 9 177 105 356
212 180 107 346 206 370 220 316 184 563 335 557 341 -11 11 -1305 769 -1312
769 -3 0 -5 -343 -5 -763z"/>
<path d="M3430 1639 c-8 -5 -44 -26 -80 -47 -36 -21 -85 -50 -110 -64 -25 -14
-155 -90 -290 -170 -135 -79 -379 -222 -542 -318 -164 -96 -298 -178 -298
-181 0 -3 82 -54 183 -114 100 -59 274 -163 387 -230 536 -319 751 -446 763
-451 11 -4 13 133 13 785 -1 434 -3 791 -6 794 -3 3 -12 1 -20 -4z"/>
<path d="M3544 858 c1 -578 4 -792 12 -791 6 1 63 32 125 69 63 37 128 75 146
85 18 10 49 29 70 42 21 14 160 97 308 184 149 88 363 215 478 283 114 67 207
126 207 129 0 4 -84 56 -187 116 -104 60 -258 151 -343 201 -85 50 -245 144
-355 208 -110 64 -207 121 -215 126 -53 31 -241 140 -243 140 -2 0 -3 -357 -3
-792z"/>
</g>
</svg>
